<svg xmlns="http://www.w3.org/2000/svg" width="36.169" height="36.169" viewBox="0 0 36.169 36.169"><defs><style>.a{fill:#0fb6de;}</style></defs><path class="a" d="M18.085,0A18.085,18.085,0,1,0,36.169,18.085,18.105,18.105,0,0,0,18.085,0Zm8.068,13.946c.008.179.012.36.012.541A11.84,11.84,0,0,1,7.94,24.459,8.405,8.405,0,0,0,14.1,22.735a4.167,4.167,0,0,1-3.888-2.891,4.178,4.178,0,0,0,1.879-.07,4.163,4.163,0,0,1-3.339-4.082c0-.017,0-.036,0-.052a4.145,4.145,0,0,0,1.885.52A4.169,4.169,0,0,1,9.353,10.6a11.819,11.819,0,0,0,8.579,4.35,4.165,4.165,0,0,1,7.093-3.8,8.309,8.309,0,0,0,2.644-1.01,4.181,4.181,0,0,1-1.833,2.3,8.275,8.275,0,0,0,2.391-.655A8.373,8.373,0,0,1,26.152,13.946Z"/></svg>