<svg width="16" height="16" viewBox="0 0 16 16" fill="none" xmlns="http://www.w3.org/2000/svg">
<path d="M3.54599 9.66918L2.98905 11.7483L0.953421 11.7914C0.345068 10.663 0 9.37205 0 8.00015C0 6.67354 0.32263 5.42252 0.894514 4.32097H0.894951L2.70723 4.65322L3.50112 6.45463C3.33496 6.93904 3.24439 7.45905 3.24439 8.00015C3.24446 8.58741 3.35083 9.15007 3.54599 9.66918Z" fill="#FBBB00"/>
<path d="M15.8602 6.50555C15.9521 6.9895 16 7.48929 16 8.00008C16 8.57284 15.9398 9.13153 15.8251 9.67045C15.4356 11.5043 14.418 13.1057 13.0084 14.2389L13.0079 14.2384L10.7253 14.122L10.4022 12.1052C11.3376 11.5566 12.0686 10.6982 12.4537 9.67045H8.17578V6.50555H12.5161H15.8602Z" fill="#518EF8"/>
<path d="M13.0083 14.2386L13.0087 14.239C11.6377 15.341 9.89616 16.0004 8.00032 16.0004C4.95368 16.0004 2.30485 14.2975 0.953613 11.7915L3.54619 9.6693C4.22179 11.4724 5.96116 12.7559 8.00032 12.7559C8.8768 12.7559 9.69794 12.519 10.4025 12.1054L13.0083 14.2386Z" fill="#28B446"/>
<path d="M13.1066 1.84178L10.5149 3.96356C9.78567 3.50774 8.92366 3.24443 8.00014 3.24443C5.91483 3.24443 4.14293 4.58685 3.50117 6.4546L0.894969 4.32094H0.894531C2.22599 1.75387 4.90822 0 8.00014 0C9.94127 0 11.7211 0.691448 13.1066 1.84178Z" fill="#F14336"/>
</svg>
