<svg width="17" height="17" viewBox="0 0 17 17" fill="none" xmlns="http://www.w3.org/2000/svg">
<path d="M17 8.5C17 3.8063 13.1937 0 8.5 0C3.8063 0 0 3.8063 0 8.5C0 13.1937 3.8063 17 8.5 17C8.54993 17 8.59961 16.999 8.64941 16.9981V10.3812H6.82324V8.25292H8.64941V6.6868C8.64941 4.87048 9.75822 3.88191 11.3784 3.88191C12.1543 3.88191 12.8212 3.93976 13.0156 3.96557V5.86385H11.8984C11.017 5.86385 10.8463 6.28278 10.8463 6.89743V8.25292H12.9539L12.6792 10.3812H10.8463V16.6716C14.3991 15.6531 17 12.3798 17 8.5Z" fill="white"/>
</svg>
