<svg xmlns="http://www.w3.org/2000/svg" width="36.169" height="36.1" viewBox="0 0 36.169 36.1"><defs><style>.a{fill:#0fb6de;}</style></defs><path class="a" d="M37.66,23.88H26.88A3.124,3.124,0,0,0,23.759,27v10.78A3.124,3.124,0,0,0,26.88,40.9H37.66a3.125,3.125,0,0,0,3.121-3.121V27A3.124,3.124,0,0,0,37.66,23.88ZM32.27,37.994a5.6,5.6,0,1,1,5.6-5.6A5.61,5.61,0,0,1,32.27,37.994Zm5.784-10.048a1.326,1.326,0,1,1,1.326-1.326A1.327,1.327,0,0,1,38.053,27.946Z" transform="translate(-14.185 -14.292)"/><path class="a" d="M40.085,36.971a3.236,3.236,0,1,0,3.235,3.235A3.24,3.24,0,0,0,40.085,36.971Z" transform="translate(-22 -22.108)"/><path class="a" d="M18.085,0A18.05,18.05,0,1,0,36.169,18.05,18.068,18.068,0,0,0,18.085,0ZM28.963,23.478a5.489,5.489,0,0,1-5.488,5.478H12.695a5.489,5.489,0,0,1-5.488-5.478V12.719a5.489,5.489,0,0,1,5.488-5.478h10.78a5.489,5.489,0,0,1,5.488,5.478Z"/></svg>