<?xml version="1.0" encoding="utf-8"?>
<!-- Generator: Adobe Illustrator 23.0.0, SVG Export Plug-In . SVG Version: 6.00 Build 0)  -->
<svg version="1.1" id="Layer_1" xmlns="http://www.w3.org/2000/svg" xmlns:xlink="http://www.w3.org/1999/xlink" x="0px" y="0px"
	 viewBox="0 0 175 25" style="enable-background:new 0 0 175 25;" xml:space="preserve">
<style type="text/css">
	.st0{fill:#ED6E1F;}
</style>
<g>
	<g>
		<path class="st0" d="M151.45,8.98c-0.02-1.24-0.06-2.48-0.08-3.72c-0.01-0.41-0.17-0.75-0.47-1.02c-0.45-0.39-0.97-0.58-1.57-0.59
			c-1.13-0.02-2.25-0.02-3.38,0c-1.1,0.02-1.85,0.54-2.26,1.57c-1.37,3.4-2.74,6.8-4.11,10.19c-0.12,0.3-0.25,0.6-0.37,0.92
			c-0.08-0.06-0.09-0.14-0.12-0.2c-0.34-0.8-0.67-1.6-1.01-2.4c-1.2-2.86-2.38-5.73-3.59-8.58c-0.42-0.98-1.15-1.58-2.28-1.55
			c-0.25,0.01-0.5-0.01-0.75-0.01c-0.99,0.01-1.98-0.05-2.97,0.05c-1.04,0.1-1.66,0.81-1.68,1.84c-0.03,1.77-0.07,3.54-0.1,5.31
			c-0.07,3.86-0.15,7.73-0.22,11.59c1.5,0,3,0,4.49,0c0.08-0.09,0.07-0.19,0.07-0.3c0.02-2.03,0-4.06,0.04-6.08
			c0.05-2.66,0.01-5.31,0.01-7.97c0-0.11-0.05-0.27,0.08-0.3c0.14-0.03,0.17,0.15,0.21,0.25c0.96,2.38,1.93,4.76,2.9,7.14
			c0.51,1.25,1.02,2.51,1.52,3.76c0.15,0.38,0.37,0.7,0.73,0.9c0.38,0.21,0.8,0.35,1.24,0.39c0.91,0.08,1.82,0.09,2.72,0
			c0.9-0.09,1.59-0.46,1.94-1.38c0.59-1.54,1.23-3.06,1.85-4.59c0.84-2.07,1.69-4.15,2.52-6.22c0.04-0.11,0.07-0.28,0.21-0.25
			c0.13,0.03,0.08,0.19,0.08,0.3c0.03,2.91-0.03,5.81,0.04,8.72c0.05,1.75,0.01,3.51,0.01,5.26c0,0.13-0.02,0.26,0.07,0.37
			c1.5,0,3,0,4.49,0c-0.03-1.42-0.06-2.83-0.08-4.25C151.56,15.08,151.5,12.03,151.45,8.98z"/>
		<path class="st0" d="M21.88,13.67c-0.55-0.47-1.19-0.78-1.87-1.02c0.05-0.09,0.14-0.1,0.21-0.13c0.63-0.3,1.16-0.72,1.58-1.28
			c0.75-1.02,0.97-2.18,0.84-3.41c-0.14-1.33-0.71-2.45-1.8-3.26c-0.96-0.71-2.06-0.94-3.23-0.94c-4.5,0-9,0-13.5,0
			c-0.22,0-0.26,0.06-0.26,0.26c0.01,4.29,0,8.58,0,12.87c0,0.27,0.01,0.55,0.04,0.82c0.23,2.44,1.82,4.19,4.22,4.66
			c0.21,0.04,0.43,0.02,0.62,0.13c0.11,0,0.23,0,0.34,0c0.05-0.07,0.11-0.05,0.18-0.05c3.02,0,6.04,0,9.05,0c0,0,0,0,0,0
			c0.1,0.01,0.2-0.05,0.29,0.04c0.1,0,0.19,0,0.29,0c0.24-0.11,0.51-0.09,0.77-0.14c1.56-0.32,2.75-1.12,3.41-2.62
			c0.28-0.64,0.41-1.32,0.44-2.02C23.57,16.04,23.1,14.7,21.88,13.67z M8.29,7c0-0.18,0.04-0.24,0.24-0.24c1.3,0.01,2.61,0,3.91,0
			c1.2,0,2.4,0,3.6,0c1.76,0,2.8,1.78,1.94,3.34c-0.4,0.72-1.05,0.99-1.83,1.01c-0.95,0.02-1.9,0.01-2.85,0.01
			c-1.59,0-3.17,0-4.76,0c-0.2,0-0.25-0.06-0.25-0.25C8.3,9.58,8.3,8.29,8.29,7z M18.12,18.68c-0.44,0.38-0.97,0.55-1.53,0.55
			c-2,0.01-4.01,0.02-6.01,0c-1.02-0.01-1.82-0.68-2.13-1.72c-0.09-0.33-0.15-0.66-0.15-1c0-0.68,0.01-1.35-0.01-2.03
			c0-0.18,0.04-0.23,0.22-0.23c1.35,0.01,2.7,0,4.06,0c1.26,0,2.53,0,3.79,0c0.66,0,1.28,0.13,1.78,0.59
			c0.44,0.41,0.65,0.94,0.71,1.52C18.96,17.25,18.84,18.06,18.12,18.68z"/>
		<path class="st0" d="M83.51,12.1c-1.26-0.51-2.6-0.73-3.93-0.92c-1.44-0.2-2.89-0.33-4.33-0.59c-0.67-0.12-1.34-0.28-1.93-0.65
			c-0.63-0.4-0.84-1-0.76-1.71c0.07-0.66,0.47-1.06,1.09-1.28c0.49-0.17,1.01-0.21,1.52-0.21c3.22,0,6.44,0,9.66,0
			c0.18,0,0.25-0.03,0.25-0.23c-0.01-0.9-0.01-1.8,0-2.7c0-0.17-0.04-0.22-0.21-0.22c-3.7,0.01-7.39,0-11.09,0.01
			c-0.73,0-1.44,0.11-2.13,0.38c-1.83,0.71-3.03,2-3.38,3.95c-0.35,2.02,0.27,3.74,1.84,5.08c0.99,0.84,2.21,1.21,3.47,1.4
			c1.95,0.3,3.91,0.47,5.86,0.73c0.57,0.08,1.15,0.16,1.67,0.43c0.66,0.34,1.1,0.84,1.09,1.63c-0.01,0.82-0.39,1.4-1.16,1.72
			c-0.48,0.2-0.99,0.27-1.51,0.27c-3.63,0-7.26,0-10.89,0c-0.09,0-0.19,0-0.28,0c-0.02,0.11,0.04,0.17,0.07,0.24
			c0.24,0.51,0.48,1.02,0.72,1.53c0.22,0.47,0.47,0.93,0.65,1.42c3.83,0,7.67,0,11.5,0c0.08-0.06,0.16-0.08,0.24,0
			c0.06,0,0.13,0,0.19,0c0.14-0.09,0.3-0.07,0.46-0.09c1.18-0.18,2.23-0.62,3.05-1.51c0.92-0.99,1.43-2.17,1.51-3.52
			c0.06-1.11-0.06-2.18-0.68-3.15C85.45,13.14,84.56,12.52,83.51,12.1z"/>
		<path class="st0" d="M172.9,8.42c-0.23-1.57-0.91-2.87-2.23-3.8c-1.02-0.72-2.17-0.99-3.4-0.99c-4.15,0-8.31,0-12.46,0
			c-0.07,0-0.14,0.01-0.22,0.01l0,0c0,6.15,0,12.3-0.01,18.45c0,0.19,0.05,0.25,0.24,0.24c1.3-0.01,2.59-0.01,3.89,0
			c0.21,0,0.27-0.05,0.27-0.27c-0.01-2.27,0-4.54,0-6.81c0-0.32,0-0.32,0.33-0.32c2.49,0,4.97,0,7.46,0c0.06,0,0.13,0.01,0.19,0.01
			c-0.17,0.06-0.35,0.04-0.53,0.04c-2.38,0-4.76,0.01-7.15,0c-0.23,0-0.28,0.06-0.28,0.28c0.01,2.31,0,4.62,0.01,6.93
			c0,0.02,0,0.04,0,0.06c0.01-0.03,0.02-0.07,0.02-0.13c0-0.1,0-0.19,0-0.29c0-2.15,0-4.3,0-6.45c0-0.36,0.02-0.38,0.39-0.38
			c2.48,0,4.96,0,7.44,0c0.87,0,1.71-0.18,2.51-0.5c1.37-0.55,2.43-1.45,3.09-2.79c0.27-0.55,0.42-1.14,0.47-1.75
			c0-0.1,0-0.19,0-0.29c-0.08-0.11-0.07-0.23,0-0.34c0-0.26,0-0.52,0-0.77C172.88,8.53,172.91,8.47,172.9,8.42z M168.25,10.33
			c-0.42,1.03-1.3,1.44-2.36,1.45c-2.21,0.02-4.43,0.01-6.64,0.01c-0.16,0-0.2-0.06-0.2-0.21c0-1.54,0.01-3.08,0-4.61
			c0-0.18,0.07-0.21,0.23-0.2c1.15,0.01,2.3,0,3.45,0c0,0,0,0,0,0.01c1.13,0,2.25-0.01,3.38,0.01c0.67,0.01,1.27,0.25,1.71,0.77
			C168.52,8.38,168.66,9.34,168.25,10.33z"/>
		<path class="st0" d="M124.28,19.23c-3.01,0.01-6.02,0-9.03,0.01c-0.52,0-1.03-0.03-1.53-0.15c-1.34-0.32-2.32-1.04-2.72-2.41
			c-0.14-0.48-0.17-0.96-0.17-1.46c0-2.71,0-5.43,0-8.14c0-0.37-0.05-0.32,0.32-0.32c4.36,0,8.71,0,13.07,0
			c0.2,0,0.26-0.04,0.26-0.25c-0.01-0.89-0.01-1.77,0-2.66c0-0.2-0.05-0.25-0.25-0.25c-5.86,0.01-11.72,0.01-17.58,0
			c-0.22,0-0.26,0.07-0.26,0.27c0.01,3.37,0,6.75,0.01,10.12c0,0.91-0.01,1.82,0.02,2.73c0.04,1.08,0.37,2.07,0.98,2.96
			c0.96,1.38,2.32,2.14,3.93,2.51c0.32,0.07,0.66,0.07,0.98,0.19c0.13,0,0.26,0,0.39,0c0.1-0.08,0.19-0.07,0.29,0
			c3.87,0,7.73,0,11.6,0c0-0.96,0-1.92,0.01-2.87C124.56,19.28,124.49,19.23,124.28,19.23z"/>
		<path class="st0" d="M104.33,3.63c-5.72,0-11.43,0-17.15,0c-0.18,0-0.23,0.04-0.23,0.22c0.01,0.89,0.01,1.77,0,2.66
			c0,0.22,0.06,0.26,0.27,0.26c2-0.01,4.01,0,6.01-0.01c0.25,0,0.3,0.07,0.3,0.31c-0.01,5.1,0,10.21,0,15.31c1.48,0,2.96,0,4.44,0
			c0-0.03,0-0.06,0-0.1c0-5.08,0-10.16-0.01-15.24c0-0.25,0.08-0.28,0.3-0.28c2.02,0.01,4.04,0,6.06,0.01
			c0.18,0,0.25-0.04,0.25-0.24c-0.01-0.89-0.01-1.79,0-2.68C104.57,3.66,104.51,3.63,104.33,3.63z"/>
		<path class="st0" d="M43.93,11.73c0.6-1.17,0.72-2.43,0.5-3.71c-0.28-1.66-1.1-2.96-2.61-3.75c-0.9-0.47-1.86-0.63-2.87-0.63
			c-4.34,0-8.68,0-13.02,0c-0.08,0-0.16,0.01-0.24,0.01c0.11,0.12,0.07,0.28,0.07,0.42c0,2.26,0,4.53,0,6.79c0,3.65,0,7.3,0,10.94
			c0,0.46,0,0.46,0.47,0.46c1.17,0,2.34,0,3.5,0c0.13,0,0.28-0.03,0.39,0.08c0-0.07,0.01-0.14,0.01-0.22c0-2.39,0-4.78,0-7.17
			c0-0.2,0.05-0.25,0.25-0.25c0.84,0.01,1.69,0.01,2.53,0c0.15,0,0.25,0.04,0.34,0.17c0.53,0.74,1.07,1.47,1.61,2.2
			c1.29,1.75,2.58,3.51,3.88,5.26c0.09-0.09,0.21-0.07,0.32-0.07c1.6,0,3.19,0,4.79,0c0.12,0,0.24,0.01,0.35,0.08
			c-0.05-0.07-0.1-0.15-0.15-0.22c-1.89-2.4-3.77-4.79-5.66-7.19c-0.05-0.06-0.14-0.11-0.12-0.22c0.69-0.01,1.37-0.08,2.03-0.25
			C41.89,14.04,43.17,13.22,43.93,11.73z M39.92,9.79c-0.24,1.03-1.09,1.71-2.2,1.71c-2.46,0.01-4.93,0-7.39,0.01
			c-0.14,0-0.19-0.03-0.19-0.18c0.01-1.46,0.01-2.91,0-4.37c0-0.2,0.09-0.19,0.24-0.19c1.26,0,2.53,0,3.79,0c1.14,0,2.27,0,3.41,0
			c0.23,0,0.47,0,0.7,0.05c0.73,0.15,1.25,0.57,1.52,1.27C40.01,8.64,40.06,9.21,39.92,9.79z"/>
		<path class="st0" d="M63.32,22.26c1.49,0,2.99,0,4.48,0c0.07,0,0.14,0.01,0.21,0.03c-0.02-0.06-0.05-0.12-0.07-0.18
			c-2.69-5.72-5.38-11.43-8.05-17.15c-0.42-0.89-1.11-1.27-2.04-1.32c-0.92-0.04-1.85-0.04-2.78,0c-0.95,0.04-1.64,0.44-2.05,1.34
			c-2.03,4.36-4.09,8.71-6.13,13.07c-0.66,1.41-1.32,2.82-1.98,4.23c0.08-0.02,0.16-0.02,0.24-0.02c1.42,0,2.83,0,4.25,0
			c0.13,0,0.28-0.03,0.39,0.07c0.47-1.12,0.95-2.23,1.41-3.35c0.07-0.16,0.15-0.23,0.33-0.23c3.23,0.01,6.45,0.01,9.68,0
			c0.2,0,0.27,0.07,0.35,0.24c0.47,1.12,0.96,2.23,1.45,3.34C63.1,22.24,63.21,22.26,63.32,22.26z M52.66,15.55
			c1.24-2.77,2.48-5.53,3.74-8.33c1.24,2.8,2.45,5.56,3.68,8.32C59.85,15.57,52.94,15.58,52.66,15.55z"/>
	</g>
	<path class="st0" d="M122.39,10.97c-1.63,0.01-3.25,0-4.88,0c-1.64,0-3.28,0-4.93,0c-0.18,0-0.24,0.04-0.22,0.22
		c0.05,0.83,0.32,1.59,0.81,2.26c0.47,0.65,1.11,0.99,1.91,0.99c2.44,0,4.88,0,7.32,0c0.18,0,0.23-0.04,0.23-0.22
		c-0.01-1.01-0.01-2.01,0-3.02C122.63,11.02,122.58,10.97,122.39,10.97z"/>
</g>
</svg>
