<?xml version="1.0" encoding="utf-8"?>
<!-- Generator: Adobe Illustrator 23.0.0, SVG Export Plug-In . SVG Version: 6.00 Build 0)  -->
<svg version="1.1" id="Layer_1" xmlns="http://www.w3.org/2000/svg" xmlns:xlink="http://www.w3.org/1999/xlink" x="0px" y="0px"
	 viewBox="0 0 34.34 33.26" style="enable-background:new 0 0 34.34 33.26;" xml:space="preserve">
<style type="text/css">
	.st0{fill:none;stroke:#9aca3c;stroke-miterlimit:10;}
</style>
<g>
	<g>
		<g>
			<path class="st0" d="M21.46,30.95H7.83c-0.47,0-0.85-0.38-0.85-0.85V5.83c0-0.47,0.38-0.85,0.85-0.85h13.63
				c0.47,0,0.85,0.38,0.85,0.85v7.23v16.96C22.32,30.02,22.34,30.95,21.46,30.95z"/>
			<line class="st0" x1="22.32" y1="12.7" x2="6.98" y2="12.7"/>
			<path class="st0" d="M11.2,14.51H8.54c-0.15,0-0.27-0.12-0.27-0.27l0-0.22c0-0.15,0.12-0.27,0.27-0.27l2.66,0
				c0.15,0,0.27,0.12,0.27,0.27v0.22C11.47,14.39,11.35,14.51,11.2,14.51z"/>
			<g>
				<rect x="8.14" y="30.95" class="st0" width="1.46" height="0.68"/>
				<rect x="19.69" y="30.95" class="st0" width="1.46" height="0.68"/>
			</g>
		</g>
		<path class="st0" d="M22.86,1.63c0,0,0.04,1.09,1.09,1.09c0,0-1.09,0.03-1.09,1.09c0,0,0.01-1.03-1.03-1.03
			C21.83,2.77,22.86,2.71,22.86,1.63z"/>
		<path class="st0" d="M24.91,4.97c0,0,0.04,1.09,1.09,1.09c0,0-1.09,0.03-1.09,1.09c0,0,0.01-1.03-1.03-1.03
			C23.88,6.12,24.91,6.05,24.91,4.97z"/>
		<path class="st0" d="M26.28,2.12c0,0,0.04,1.09,1.09,1.09c0,0-1.09,0.03-1.09,1.09c0,0,0.01-1.03-1.03-1.03
			C25.25,3.27,26.28,3.2,26.28,2.12z"/>
	</g>
</g>
</svg>
