<?xml version="1.0" encoding="utf-8"?>
<!-- Generator: Adobe Illustrator 23.0.0, SVG Export Plug-In . SVG Version: 6.00 Build 0)  -->
<svg version="1.1" id="Layer_1" xmlns="http://www.w3.org/2000/svg" xmlns:xlink="http://www.w3.org/1999/xlink" x="0px" y="0px"
	 viewBox="0 0 29.74 28.81" style="enable-background:new 0 0 29.74 28.81;" xml:space="preserve">
<style type="text/css">
	.st0{fill:none;stroke:#9aca3c;stroke-miterlimit:10;}
</style>
<g>
	<path class="st0" d="M26.91,8.53l-4.85-4.71c-1-0.98-2.72-0.29-2.72,1.1v2.36h-6.11c-0.63,0-1.15,0.5-1.15,1.11v2.49
		c0,0.62,0.51,1.11,1.15,1.11h6.11v2.36c0,1.38,1.72,2.07,2.72,1.1l4.85-4.71C27.53,10.12,27.53,9.14,26.91,8.53z"/>
	<path class="st0" d="M2.84,20.27l4.85,4.71c1,0.98,2.72,0.29,2.72-1.1v-2.36h6.11c0.63,0,1.15-0.5,1.15-1.11v-2.49
		c0-0.62-0.51-1.11-1.15-1.11h-6.11v-2.36c0-1.38-1.72-2.07-2.72-1.1l-4.85,4.71C2.22,18.69,2.22,19.67,2.84,20.27z"/>
</g>
</svg>
