<?xml version="1.0" encoding="utf-8"?>
<!-- Generator: Adobe Illustrator 23.0.0, SVG Export Plug-In . SVG Version: 6.00 Build 0)  -->
<svg version="1.1" id="Layer_1" xmlns="http://www.w3.org/2000/svg" xmlns:xlink="http://www.w3.org/1999/xlink" x="0px" y="0px"
	 viewBox="0 0 48.98 47.44" style="enable-background:new 0 0 48.98 47.44;" xml:space="preserve">
<style type="text/css">
	.st0{fill:#9aca3c;}
</style>
<g>
	<g>
		<path class="st0" d="M24.52,45.23c-0.32,0-0.63-0.06-0.89-0.19c-15.72-7.1-16.1-20.1-16.1-20.22l-0.38-13.5
			C7.09,9.47,8.48,7.89,10.26,7.7c6.59-0.63,10.9-3.36,12.87-5.01c0.82-0.63,1.97-0.63,2.73,0c1.97,1.58,6.28,4.37,12.87,5.01l0,0
			c1.84,0.19,3.17,1.78,3.11,3.61l-0.38,13.5c0,0.13-0.32,13.12-16.1,20.22C25.15,45.16,24.84,45.23,24.52,45.23z M24.52,3.51
			c-0.19,0-0.38,0.06-0.57,0.19c-2.09,1.71-6.59,4.63-13.57,5.26c-1.14,0.13-2.03,1.14-1.97,2.28l0.38,13.5
			c0,0.13,0.38,12.36,15.34,19.15c0.25,0.13,0.51,0.13,0.76,0c14.96-6.78,15.34-19.02,15.34-19.08l0.38-13.5
			c0.06-1.2-0.82-2.16-1.97-2.28c-6.91-0.63-11.47-3.55-13.57-5.26C24.9,3.57,24.71,3.51,24.52,3.51z"/>
		<path class="st0" d="M24.52,32.04c-5.14,0-9.26-4.18-9.26-9.26c0-5.14,4.18-9.26,9.26-9.26c5.14,0,9.26,4.18,9.26,9.26
			S29.66,32.04,24.52,32.04z M24.52,14.73c-4.44,0-7.99,3.61-7.99,7.99s3.61,7.99,7.99,7.99s7.99-3.55,7.99-7.92
			S28.96,14.73,24.52,14.73z"/>
		<path class="st0" d="M23.7,25.83c-0.13,0-0.25-0.06-0.38-0.13l-2.47-1.78c-0.25-0.19-0.38-0.57-0.13-0.89
			c0.19-0.32,0.57-0.38,0.89-0.13l1.97,1.39l3.61-5.14c0.19-0.32,0.57-0.38,0.89-0.13c0.32,0.19,0.38,0.57,0.13,0.89l-3.99,5.64
			c-0.13,0.13-0.25,0.25-0.38,0.25C23.76,25.83,23.7,25.83,23.7,25.83z"/>
	</g>
</g>
</svg>
