<?xml version="1.0" encoding="utf-8"?>
<!-- Generator: Adobe Illustrator 23.0.0, SVG Export Plug-In . SVG Version: 6.00 Build 0)  -->
<svg version="1.1" id="Layer_1" xmlns="http://www.w3.org/2000/svg" xmlns:xlink="http://www.w3.org/1999/xlink" x="0px" y="0px"
	 viewBox="0 0 66.48 64.38" style="enable-background:new 0 0 66.48 64.38;" xml:space="preserve">
<style type="text/css">
	.st0{fill:url(#SVGID_1_);}
	.st1{fill:url(#SVGID_2_);}
	.st2{fill:url(#SVGID_3_);}
	.st3{fill:url(#SVGID_4_);}
	.st4{fill:#FFFFFF;}
	.st5{fill:url(#SVGID_5_);}
</style>
<g>
	<g>
		<linearGradient id="SVGID_1_" gradientUnits="userSpaceOnUse" x1="33.2373" y1="63.8508" x2="33.2373" y2="24.9999">
			<stop  offset="0" style="stop-color:#FF8300"/>
			<stop  offset="1" style="stop-color:#FF4C0C"/>
		</linearGradient>
		<polyline class="st0" points="33.24,25 11.36,42.66 11.36,42.68 33.24,62.93 55.11,42.68 		"/>
		<linearGradient id="SVGID_2_" gradientUnits="userSpaceOnUse" x1="45.3487" y1="3.0929" x2="45.3487" y2="42.6762">
			<stop  offset="0" style="stop-color:#FF8300"/>
			<stop  offset="1" style="stop-color:#FF4C0C"/>
		</linearGradient>
		<polyline class="st1" points="55.11,42.68 57.46,4.04 57.41,4.04 33.24,25 		"/>
		<linearGradient id="SVGID_3_" gradientUnits="userSpaceOnUse" x1="33.2376" y1="24.9999" x2="33.2376" y2="1.4126">
			<stop  offset="0" style="stop-color:#FF8300"/>
			<stop  offset="1" style="stop-color:#FF4C0C"/>
		</linearGradient>
		<polygon class="st2" points="57.41,4.04 33.24,1.46 9.06,4.04 33.24,25 		"/>
		<linearGradient id="SVGID_4_" gradientUnits="userSpaceOnUse" x1="9.0155" y1="23.3472" x2="57.4597" y2="23.3472">
			<stop  offset="0" style="stop-color:#FF8300"/>
			<stop  offset="1" style="stop-color:#FF4C0C"/>
		</linearGradient>
		<polygon class="st3" points="9.06,4.04 9.02,4.04 11.36,42.66 33.24,25 		"/>
	</g>
	<g>
		<path class="st4" d="M20.39,32.64l0.06-0.33h1.12v2.05c-0.06,0.02-0.14,0.05-0.23,0.07c-0.09,0.02-0.18,0.04-0.28,0.06
			c-0.1,0.02-0.19,0.03-0.28,0.04c-0.09,0.01-0.18,0.01-0.26,0.01c-0.38,0-0.69-0.05-0.92-0.14c-0.23-0.09-0.41-0.22-0.53-0.39
			s-0.2-0.37-0.24-0.61c-0.04-0.24-0.06-0.5-0.06-0.78v-0.42c0-0.31,0.03-0.59,0.08-0.83c0.05-0.24,0.15-0.44,0.28-0.61
			c0.13-0.16,0.32-0.29,0.55-0.37c0.23-0.09,0.52-0.13,0.88-0.13c0.15,0,0.31,0.01,0.47,0.04c0.16,0.03,0.3,0.06,0.41,0.11
			l-0.08,0.3c-0.11-0.03-0.23-0.06-0.37-0.08c-0.13-0.02-0.28-0.04-0.45-0.04c-0.25,0-0.47,0.02-0.65,0.07
			c-0.18,0.05-0.32,0.14-0.44,0.26c-0.11,0.13-0.2,0.29-0.25,0.5c-0.05,0.21-0.08,0.48-0.08,0.8v0.39c0,0.31,0.02,0.57,0.07,0.78
			c0.05,0.21,0.13,0.37,0.24,0.49c0.11,0.12,0.25,0.21,0.43,0.25c0.18,0.05,0.39,0.07,0.65,0.07c0.12,0,0.25-0.01,0.36-0.02
			c0.12-0.01,0.22-0.03,0.32-0.05v-1.5H20.39z"/>
		<path class="st4" d="M25.09,33.21h-1.79l-0.44,1.27H22.5l1.49-4.17h0.45l1.51,4.17h-0.4L25.09,33.21z M23.43,32.87h1.55l-0.78-2.2
			L23.43,32.87z"/>
		<path class="st4" d="M28.4,32.72h-1.11v1.76h-0.36v-4.17h1.53c0.2,0,0.38,0.03,0.52,0.09c0.15,0.06,0.27,0.14,0.36,0.24
			c0.1,0.1,0.17,0.22,0.21,0.37c0.05,0.14,0.07,0.3,0.07,0.46v0.09c0,0.17-0.02,0.32-0.07,0.45c-0.04,0.13-0.11,0.24-0.18,0.32
			c-0.08,0.09-0.17,0.16-0.27,0.22s-0.21,0.09-0.32,0.12l0.98,1.81h-0.42L28.4,32.72z M27.28,32.39h1.02c0.32,0,0.55-0.07,0.7-0.2
			c0.15-0.13,0.23-0.34,0.23-0.64V31.5c0-0.29-0.07-0.51-0.21-0.65c-0.14-0.14-0.36-0.21-0.67-0.21h-1.08V32.39z"/>
		<path class="st4" d="M33.09,33.21h-1.79l-0.44,1.27h-0.37l1.49-4.17h0.45l1.51,4.17h-0.4L33.09,33.21z M31.42,32.87h1.55
			l-0.78-2.2L31.42,32.87z"/>
		<path class="st4" d="M35.3,30.31l2.17,3.59v-3.59h0.35v4.17h-0.38l-2.17-3.59v3.59h-0.35v-4.17H35.3z"/>
		<path class="st4" d="M41.91,30.63h-1.38v3.85h-0.37v-3.85h-1.42l0.06-0.32h3.17L41.91,30.63z"/>
		<path class="st4" d="M43.26,30.31v4.17h-0.37v-4.17H43.26z"/>
		<path class="st4" d="M46.84,33.21h-1.79l-0.44,1.27h-0.37l1.49-4.17h0.45l1.51,4.17h-0.4L46.84,33.21z M45.17,32.87h1.55
			l-0.78-2.2L45.17,32.87z"/>
	</g>
	<g>
		<path class="st4" d="M19.36,37.25l-0.08,0.59H17.4v1.16h1.78l-0.08,0.59h-1.7v1.25h1.97l-0.08,0.59h-2.62v-4.17H19.36z"/>
		<path class="st4" d="M21.48,41.48c-0.23,0-0.46-0.02-0.68-0.05c-0.22-0.04-0.41-0.08-0.56-0.13l0.12-0.57
			c0.16,0.04,0.34,0.08,0.52,0.11c0.18,0.03,0.37,0.05,0.57,0.05c0.32,0,0.55-0.05,0.69-0.16c0.14-0.1,0.2-0.27,0.2-0.5
			c0-0.07-0.01-0.14-0.02-0.21c-0.02-0.06-0.04-0.12-0.09-0.17c-0.04-0.05-0.1-0.09-0.18-0.13c-0.08-0.04-0.17-0.06-0.3-0.08
			l-0.47-0.06c-0.33-0.05-0.58-0.17-0.76-0.36c-0.17-0.2-0.26-0.45-0.26-0.76v-0.06c0-0.41,0.13-0.72,0.39-0.91
			c0.26-0.19,0.66-0.29,1.19-0.29c0.21,0,0.4,0.01,0.58,0.04c0.18,0.03,0.36,0.07,0.53,0.13l-0.12,0.57
			c-0.13-0.04-0.28-0.08-0.44-0.11c-0.16-0.03-0.35-0.04-0.54-0.04c-0.31,0-0.54,0.04-0.68,0.13c-0.14,0.09-0.21,0.25-0.21,0.47
			c0,0.18,0.04,0.3,0.13,0.38c0.09,0.08,0.24,0.14,0.45,0.17l0.46,0.08c0.16,0.03,0.3,0.07,0.43,0.11c0.13,0.05,0.24,0.12,0.34,0.2
			c0.09,0.09,0.17,0.2,0.22,0.33c0.05,0.13,0.08,0.29,0.08,0.49v0.06C23.07,41.06,22.54,41.48,21.48,41.48z"/>
		<path class="st4" d="M27.06,37.25l-0.08,0.6h-1.21v3.57h-0.73v-3.57h-1.29l0.08-0.6H27.06z"/>
		<path class="st4" d="M30.66,37.25l-0.08,0.59h-1.89v1.16h1.78l-0.08,0.59h-1.7v1.25h1.97l-0.08,0.59h-2.62v-4.17H30.66z"/>
		<path class="st4" d="M32.32,37.25l1.8,2.97v-2.97h0.67v4.17h-0.64l-1.8-2.97v2.97h-0.67v-4.17H32.32z"/>
		<path class="st4" d="M36.02,37.25h1.41c0.35,0,0.64,0.05,0.87,0.14c0.23,0.09,0.41,0.22,0.55,0.39c0.14,0.17,0.23,0.36,0.29,0.59
			c0.05,0.23,0.08,0.48,0.08,0.75v0.43c0,0.28-0.03,0.53-0.09,0.76c-0.06,0.23-0.16,0.43-0.29,0.59c-0.14,0.17-0.32,0.29-0.55,0.39
			c-0.23,0.09-0.52,0.14-0.86,0.14h-1.4V37.25z M36.75,40.81h0.61c0.18,0,0.34-0.02,0.48-0.06c0.14-0.04,0.25-0.11,0.35-0.21
			c0.09-0.1,0.16-0.23,0.21-0.4c0.05-0.17,0.07-0.38,0.07-0.63v-0.35c0-0.25-0.02-0.46-0.07-0.63c-0.04-0.17-0.11-0.3-0.2-0.4
			c-0.09-0.1-0.21-0.17-0.34-0.21s-0.3-0.06-0.49-0.06h-0.62V40.81z"/>
		<path class="st4" d="M41.08,41.42h-0.73v-4.17h0.73V41.42z"/>
		<path class="st4" d="M42.29,37.25h1.41c0.35,0,0.64,0.05,0.87,0.14c0.23,0.09,0.41,0.22,0.55,0.39c0.14,0.17,0.23,0.36,0.29,0.59
			c0.05,0.23,0.08,0.48,0.08,0.75v0.43c0,0.28-0.03,0.53-0.09,0.76c-0.06,0.23-0.16,0.43-0.29,0.59c-0.14,0.17-0.32,0.29-0.55,0.39
			c-0.23,0.09-0.52,0.14-0.86,0.14h-1.4V37.25z M43.03,40.81h0.61c0.18,0,0.34-0.02,0.48-0.06c0.14-0.04,0.25-0.11,0.35-0.21
			c0.09-0.1,0.16-0.23,0.21-0.4c0.05-0.17,0.07-0.38,0.07-0.63v-0.35c0-0.25-0.02-0.46-0.07-0.63c-0.04-0.17-0.11-0.3-0.2-0.4
			c-0.09-0.1-0.21-0.17-0.34-0.21s-0.3-0.06-0.49-0.06h-0.62V40.81z"/>
		<path class="st4" d="M48.73,40.32h-1.48l-0.35,1.1h-0.73l1.42-4.17h0.78l1.45,4.17h-0.76L48.73,40.32z M47.43,39.73h1.11
			l-0.55-1.77L47.43,39.73z"/>
	</g>
	<g>
		<path class="st4" d="M37.14,20.05c0-1.13-0.59-1.94-1.87-1.94H29.2v1.62c0,1.13,0.58,2.11,1.82,2.11h4.25
			C36.39,21.84,37.14,21.18,37.14,20.05 M29.2,15.76h5.87c0.9,0,1.58-0.58,1.58-1.56c0-1.13-0.71-1.69-1.58-1.69H29.2V15.76z
			 M25.88,20.05v-9.89h10.37c2.55,0,3.73,1.79,3.73,3.59c0,1.53-0.8,2.66-2.04,3.15c1.69,0.55,2.66,1.79,2.66,3.46
			c0,1.97-1.04,3.83-4.02,3.83h-6.52C27.81,24.19,25.88,22.81,25.88,20.05"/>
	</g>
	<linearGradient id="SVGID_5_" gradientUnits="userSpaceOnUse" x1="10.0639" y1="32.2434" x2="56.4113" y2="32.2434">
		<stop  offset="3.875969e-03" style="stop-color:#FFFFFF"/>
		<stop  offset="1" style="stop-color:#E5E8E9"/>
	</linearGradient>
	<path class="st5" d="M33.24,61.33L12.3,42.13l0-0.14L10.06,5.63l0.32-0.06l22.85-2.41l0.03,0L56.1,5.57l0.31,0.06l-2.24,36.5
		L33.24,61.33z M12.88,41.86l20.36,18.67L53.6,41.86l2.19-35.72L33.24,3.75L10.69,6.14L12.88,41.86z"/>
</g>
</svg>
