<?xml version="1.0" encoding="utf-8"?>
<!-- Generator: Adobe Illustrator 23.0.0, SVG Export Plug-In . SVG Version: 6.00 Build 0)  -->
<svg version="1.1" id="Layer_1" xmlns="http://www.w3.org/2000/svg" xmlns:xlink="http://www.w3.org/1999/xlink" x="0px" y="0px"
	 viewBox="0 0 48.98 47.44" style="enable-background:new 0 0 48.98 47.44;" xml:space="preserve">
<style type="text/css">
	.st0{fill:#9aca3c;stroke:#FFFFFF;stroke-width:0.25;stroke-miterlimit:10;}
</style>
<g>
	<g>
		<path class="st0" d="M46.06,25.96h-5.9c-0.81,0-1.42,0.68-1.42,1.42v1.42c-1.9-0.88-5.77-2.04-10.31,0.68
			c-0.07,0-0.07,0.07-0.14,0.07c0,0-1.56,1.42-4.41,1.42h-5.36l-5.63-5.63c-0.41-0.41-1.02-0.61-1.63-0.61
			c-0.61,0-1.15,0.27-1.56,0.75c-0.14,0.2-0.27,0.41-0.41,0.61c-0.34-0.14-0.68-0.27-1.09-0.27c-0.61,0-1.22,0.27-1.63,0.75
			c-0.34,0.41-0.54,0.88-0.61,1.42c-0.2,0-0.34-0.07-0.54-0.07c-1.02,0-1.97,0.47-2.65,1.15l-0.34,0.34
			c-1.36,1.42-1.36,3.73,0.07,5.16l6.92,7.12c0.14,0.14,3.39,3.53,8.07,3.53h7.53c0.14,0,3.87,0,6.58-2.04
			c0.07,0,3.26-1.97,7.19-2.17v1.63c0,0.81,0.68,1.42,1.42,1.42h5.9c0.81,0,1.42-0.68,1.42-1.42V27.38
			C47.48,26.57,46.87,25.96,46.06,25.96z M10.71,26.43c0.14-0.14,0.27-0.2,0.47-0.2c0.2,0,0.34,0.07,0.47,0.2l4.88,4.88
			c-0.41,0.14-0.81,0.41-1.15,0.68l-3.8-3.87l0,0l0,0l-0.81-0.81C10.51,27.11,10.51,26.7,10.71,26.43z M7.73,28.67
			c-0.34-0.27-0.34-0.81-0.07-1.15C7.8,27.38,8,27.25,8.2,27.25c0.2,0,0.41,0.07,0.61,0.2l0.81,0.81c0.07,0.07,0.07,0.07,0.14,0.14
			l0.75,0.68l4.07,4c-0.2,0.54-0.34,1.09-0.41,1.76l-6.04-5.97C8,28.94,7.86,28.81,7.73,28.67L7.73,28.67z M30.66,41.97
			c-2.37,1.7-5.7,1.76-5.7,1.76h-7.53c-4,0-6.92-3.05-6.99-3.12l-6.85-7.12c-0.81-0.88-0.81-2.17,0-3.05l0.27-0.27
			c0.41-0.47,0.95-0.68,1.56-0.68c0.47,0,0.88,0.14,1.29,0.34l0,0l0.81,0.75l7.53,7.46c0.88,1.09,2.31,1.42,3.19,1.42H27
			c0.41,0,0.75-0.34,0.75-0.75S27.4,37.97,27,37.97h-8.82c-0.14,0-1.15,0-1.83-0.75l0,0l-0.14-0.14c-0.34-0.41-0.61-0.95-0.61-1.83
			c0-0.88,0.2-1.56,0.68-2.04c0.75-0.75,1.83-0.75,1.83-0.75h5.63c3.12,0,4.95-1.42,5.36-1.76c4.61-2.71,8.41-0.88,9.5-0.2v9.02
			C34.32,39.73,30.86,41.83,30.66,41.97z M45.99,42.58h-5.77V27.45h5.77V42.58z"/>
		<path class="st0" d="M26.32,27.79c4.68,0,8.48-3.8,8.48-8.48s-3.8-8.48-8.48-8.48s-8.48,3.8-8.48,8.48S21.64,27.79,26.32,27.79z
			 M26.32,12.32c3.87,0,6.99,3.12,6.99,6.99s-3.12,6.99-6.99,6.99s-6.99-3.12-6.99-6.99S22.45,12.32,26.32,12.32z"/>
		<path class="st0" d="M25.5,23.79v0.61c0,0.2,0.2,0.41,0.41,0.41h0.75c0.2,0,0.41-0.2,0.41-0.41v-0.61
			c0.54-0.14,0.95-0.34,1.29-0.68c0.41-0.41,0.61-1.02,0.61-1.7c0-0.41-0.07-0.81-0.27-1.15c-0.14-0.34-0.41-0.61-0.75-0.88
			c-0.34-0.2-0.75-0.41-1.29-0.61c-0.54-0.2-0.81-0.34-0.95-0.47c-0.07-0.07-0.2-0.2-0.2-0.47c0-0.27,0.07-0.41,0.2-0.54
			c0.27-0.2,0.88-0.27,1.22,0.07c0.14,0.2,0.27,0.47,0.27,0.88c0,0.2,0.2,0.41,0.41,0.41h0.95c0.2,0,0.41-0.2,0.41-0.41
			c0-0.81-0.2-1.42-0.54-1.9c-0.34-0.41-0.75-0.68-1.22-0.81v-0.75c0-0.2-0.2-0.41-0.41-0.41h-0.75c-0.2,0-0.41,0.2-0.41,0.41v0.75
			c-0.47,0.14-0.88,0.34-1.22,0.68c-0.41,0.41-0.61,0.95-0.61,1.63c0,0.68,0.2,1.22,0.61,1.63c0.41,0.41,0.95,0.75,1.76,0.95
			c0.54,0.2,0.81,0.34,0.95,0.47c0.14,0.14,0.2,0.27,0.2,0.47s-0.07,0.41-0.2,0.54c-0.2,0.14-0.41,0.2-0.75,0.2
			c-0.34,0-0.54-0.07-0.75-0.27c-0.14-0.14-0.27-0.41-0.27-0.75c0-0.2-0.2-0.41-0.41-0.41h-0.95c-0.2,0-0.41,0.2-0.41,0.41
			c0,0.75,0.2,1.42,0.61,1.83C24.55,23.45,24.96,23.65,25.5,23.79z"/>
		<path class="st0" d="M9.97,19.17c4.68,0,8.48-3.8,8.48-8.48s-3.87-8.48-8.48-8.48s-8.48,3.8-8.48,8.48S5.28,19.17,9.97,19.17z
			 M9.97,3.7c3.87,0,6.99,3.12,6.99,6.99s-3.12,6.99-6.99,6.99s-6.99-3.12-6.99-6.99S6.1,3.7,9.97,3.7z"/>
		<path class="st0" d="M9.15,15.17v0.61c0,0.2,0.2,0.41,0.41,0.41h0.75c0.2,0,0.41-0.2,0.41-0.41v-0.61
			c0.54-0.14,0.95-0.34,1.29-0.68c0.41-0.41,0.61-1.02,0.61-1.7c0-0.41-0.07-0.81-0.27-1.15c-0.14-0.34-0.41-0.61-0.75-0.88
			c-0.34-0.2-0.75-0.41-1.29-0.61c-0.54-0.2-0.81-0.34-0.95-0.47c-0.07-0.07-0.2-0.2-0.2-0.47c0-0.27,0.07-0.41,0.2-0.54
			c0.27-0.2,0.88-0.27,1.22,0.07c0.14,0.2,0.27,0.47,0.27,0.88c0,0.2,0.2,0.41,0.41,0.41h0.95c0.2,0,0.41-0.2,0.41-0.41
			c0-0.81-0.2-1.42-0.54-1.9c-0.34-0.41-0.75-0.68-1.22-0.81V6.15c0-0.2-0.2-0.41-0.41-0.41H9.69c-0.2,0-0.41,0.2-0.41,0.41v0.75
			C8.81,7.03,8.41,7.23,8.07,7.57C7.66,7.98,7.46,8.52,7.46,9.2s0.2,1.22,0.61,1.63c0.41,0.41,0.95,0.75,1.76,0.95
			c0.54,0.2,0.81,0.34,0.95,0.47c0.14,0.14,0.2,0.27,0.2,0.47c0,0.2-0.07,0.41-0.2,0.54c-0.2,0.14-0.41,0.2-0.75,0.2
			c-0.34,0-0.54-0.07-0.75-0.27c-0.14-0.14-0.27-0.41-0.27-0.75c0-0.2-0.2-0.41-0.41-0.41H7.66c-0.2,0-0.41,0.2-0.41,0.41
			c0,0.75,0.2,1.42,0.61,1.83C8.13,14.83,8.61,15.1,9.15,15.17z"/>
	</g>
</g>
</svg>
