<?xml version="1.0" encoding="utf-8"?>
<!-- Generator: Adobe Illustrator 23.0.0, SVG Export Plug-In . SVG Version: 6.00 Build 0)  -->
<svg version="1.1" id="Layer_1" xmlns="http://www.w3.org/2000/svg" xmlns:xlink="http://www.w3.org/1999/xlink" x="0px" y="0px"
	 viewBox="0 0 29.74 28.81" style="enable-background:new 0 0 29.74 28.81;" xml:space="preserve">
<style type="text/css">
	.st0{fill:none;stroke:#9aca3c;stroke-miterlimit:10;}
</style>
<g>
	<path class="st0" d="M16.56,10.69l-2.26-1.52c0.05-0.45,0.03-0.89-0.04-1.33l2.21-1.49l-0.53-1.28L13.25,5.6
		c-0.27-0.34-0.6-0.65-0.97-0.91l0.51-2.61l-1.28-0.53L9.99,3.81C9.54,3.77,9.1,3.78,8.66,3.85L7.18,1.65L5.9,2.18l0.53,2.67
		c-0.34,0.28-0.65,0.6-0.91,0.97L2.9,5.31L2.37,6.59l2.26,1.52C4.59,8.56,4.6,9.01,4.67,9.44l-2.21,1.49L3,12.21l2.67-0.53
		c0.27,0.34,0.6,0.65,0.97,0.91l-0.51,2.61l1.28,0.53l1.52-2.26c0.45,0.05,0.89,0.03,1.33-0.04l1.49,2.21l1.28-0.53l-0.53-2.67
		c0.34-0.28,0.65-0.6,0.91-0.97l2.61,0.51L16.56,10.69z M8.66,10.57C7.6,10.13,7.09,8.91,7.53,7.85c0.44-1.07,1.66-1.57,2.73-1.13
		c1.07,0.44,1.57,1.66,1.13,2.73C10.95,10.51,9.73,11.01,8.66,10.57z"/>
	<path class="st0" d="M25.47,24.84l-1.37-2.36c0.24-0.38,0.42-0.79,0.55-1.21l2.64-0.37l0.08-1.38l-2.63-0.7
		c-0.1-0.43-0.25-0.85-0.47-1.25l1.6-2.12l-0.92-1.04l-2.36,1.37c-0.38-0.24-0.79-0.42-1.21-0.55l-0.37-2.64l-1.38-0.08l-0.7,2.63
		c-0.43,0.1-0.85,0.26-1.25,0.47l-2.12-1.6l-1.04,0.92l1.37,2.36c-0.24,0.38-0.42,0.79-0.55,1.21l-2.64,0.37l-0.08,1.38l2.63,0.7
		c0.1,0.43,0.25,0.85,0.47,1.25l-1.6,2.12l0.92,1.04l2.36-1.37c0.38,0.24,0.79,0.42,1.21,0.55l0.37,2.64l1.38,0.08l0.7-2.63
		c0.43-0.1,0.85-0.25,1.25-0.47l2.12,1.6L25.47,24.84z M18.43,21.27c-0.76-0.86-0.68-2.18,0.18-2.95c0.86-0.76,2.18-0.68,2.95,0.18
		c0.76,0.86,0.68,2.18-0.18,2.95C20.52,22.21,19.2,22.13,18.43,21.27z"/>
</g>
</svg>
