<?xml version="1.0" encoding="utf-8"?>
<!-- Generator: Adobe Illustrator 23.0.0, SVG Export Plug-In . SVG Version: 6.00 Build 0)  -->
<svg version="1.1" id="Layer_1" xmlns="http://www.w3.org/2000/svg" xmlns:xlink="http://www.w3.org/1999/xlink" x="0px" y="0px"
	 viewBox="0 0 48.98 47.44" style="enable-background:new 0 0 48.98 47.44;" xml:space="preserve">
<style type="text/css">
	.st0{fill:#9aca3c;}
</style>
<g>
	<g>
		<path class="st0" d="M24.69,38.27c-8.14,0-14.76-6.62-14.76-14.76S16.56,8.76,24.69,8.76s14.76,6.62,14.76,14.76
			C39.45,31.65,32.89,38.27,24.69,38.27z M24.69,9.92c-7.5,0-13.6,6.1-13.6,13.6s6.1,13.6,13.6,13.6s13.6-6.1,13.6-13.6
			S32.25,9.92,24.69,9.92z"/>
		<path class="st0" d="M24.52,44.61c-0.17,0-0.29-0.06-0.41-0.17l-3.08-3.08l-4.07,1.69c-0.12,0.06-0.29,0.06-0.46,0
			c-0.12-0.06-0.23-0.17-0.29-0.29l-1.69-4.07h-4.42c-0.35,0-0.58-0.23-0.58-0.58v-4.36l-4.07-1.69C5.34,32,5.23,31.88,5.17,31.77
			c-0.06-0.12-0.06-0.29,0-0.46l1.69-4.07l-3.08-3.08c-0.23-0.23-0.23-0.58,0-0.81l3.08-3.08l-1.69-4.07
			c-0.06-0.12-0.06-0.29,0-0.46c0.06-0.12,0.17-0.23,0.29-0.29l4.07-1.69V9.34c0-0.35,0.23-0.58,0.58-0.58h4.36l1.69-4.07
			c0.06-0.12,0.17-0.23,0.29-0.29c0.12-0.06,0.29-0.06,0.46,0l4.07,1.69L24.05,3c0.23-0.23,0.58-0.23,0.81,0l3.08,3.08l4.07-1.69
			c0.12-0.06,0.29-0.06,0.46,0c0.12,0.06,0.23,0.17,0.29,0.29l1.69,4.07h4.42c0.35,0,0.58,0.23,0.58,0.58v4.36l4.07,1.69
			c0.12,0.06,0.23,0.17,0.29,0.29c0.06,0.12,0.06,0.29,0,0.46l-1.69,4.07l3.08,3.08c0.23,0.23,0.23,0.58,0,0.81l-3.08,3.08
			l1.69,4.07c0.06,0.12,0.06,0.29,0,0.46c-0.06,0.12-0.17,0.23-0.29,0.29l-4.07,1.69v4.42c0,0.35-0.23,0.58-0.58,0.58h-4.36
			l-1.69,4.07c-0.06,0.12-0.17,0.23-0.29,0.29c-0.12,0.06-0.29,0.06-0.46,0L28,41.35l-3.08,3.08
			C24.81,44.55,24.69,44.61,24.52,44.61z M21.15,40.08c0.17,0,0.29,0.06,0.41,0.17l2.96,2.96l2.96-2.96
			c0.17-0.17,0.41-0.23,0.64-0.12l3.89,1.63l1.63-3.89c0.12-0.23,0.29-0.35,0.52-0.35h4.18v-4.24c0-0.23,0.12-0.46,0.35-0.52
			l3.89-1.63l-1.63-3.89c-0.12-0.23-0.06-0.46,0.12-0.64l2.96-2.96l-2.96-2.91c-0.17-0.17-0.23-0.41-0.12-0.64l1.63-3.89l-3.89-1.63
			c-0.23-0.12-0.35-0.29-0.35-0.52V9.86h-4.24c-0.23,0-0.46-0.12-0.52-0.35l-1.63-3.89l-3.89,1.63c-0.23,0.12-0.46,0.06-0.64-0.12
			l-2.96-2.96l-2.91,2.96c-0.17,0.17-0.41,0.23-0.64,0.12l-3.89-1.63L15.4,9.51c-0.12,0.23-0.29,0.35-0.52,0.35h-4.18v4.24
			c0,0.23-0.12,0.46-0.35,0.52l-3.89,1.63l1.63,3.89c0.12,0.23,0.06,0.46-0.12,0.64l-2.96,2.96l2.96,2.91
			c0.17,0.17,0.23,0.41,0.12,0.64l-1.63,3.89l3.89,1.63c0.23,0.12,0.35,0.29,0.35,0.52v4.18h4.24c0.23,0,0.46,0.12,0.52,0.35
			l1.63,3.89l3.89-1.63C20.97,40.08,21.09,40.08,21.15,40.08z"/>
		<path class="st0" d="M22.78,31.3c-0.17,0-0.29-0.06-0.41-0.17l-6.8-6.8c-0.23-0.23-0.23-0.58,0-0.81l2.56-2.56
			c0.23-0.23,0.58-0.23,0.81,0l3.84,3.84l6.39-6.39c0.23-0.23,0.58-0.23,0.81,0l2.56,2.56c0.23,0.23,0.23,0.58,0,0.81l-9.36,9.36
			C23.07,31.24,22.95,31.3,22.78,31.3z M16.79,23.92l5.99,5.99l8.54-8.54l-1.74-1.74l-6.39,6.39c-0.23,0.23-0.58,0.23-0.81,0
			l-3.84-3.84L16.79,23.92z"/>
	</g>
</g>
</svg>
