<?xml version="1.0" encoding="utf-8"?>
<!-- Generator: Adobe Illustrator 23.0.0, SVG Export Plug-In . SVG Version: 6.00 Build 0)  -->
<svg version="1.1" id="Layer_1" xmlns="http://www.w3.org/2000/svg" xmlns:xlink="http://www.w3.org/1999/xlink" x="0px" y="0px"
	 viewBox="0 0 34.34 33.26" style="enable-background:new 0 0 34.34 33.26;" xml:space="preserve">
<style type="text/css">
	.st0{fill:none;stroke:#9aca3c;stroke-miterlimit:10;}
</style>
<g>
	<path class="st0" d="M2.24,13.1h2.89c0.35,0,0.68-0.13,0.93-0.37c0.92-0.86,2.1-2.93,5.78-2.93"/>
	<path class="st0" d="M10.34,12.1h5.59c0.51,0,0.93,0.42,0.93,0.93v0.66c0,0.47-0.38,0.84-0.84,0.84h-0.38"/>
	<path class="st0" d="M15.04,16.93h0.5c0.44,0,0.79-0.35,0.79-0.79v-0.99c0-0.37-0.31-0.65-0.68-0.62l0,0"/>
	<path class="st0" d="M14.97,19.43h0.47c0.3,0,0.54-0.24,0.54-0.54v-1.33c0-0.35-0.28-0.63-0.63-0.63h-0.3"/>
	<path class="st0" d="M3.1,20.38h2.16c0.35,0,0.69,0.08,1.01,0.22l2.29,1.07c0.26,0.12,0.53,0.18,0.82,0.18h5.02
		c0.59,0,1.08-0.48,1.08-1.08v-0.8c0-0.3-0.25-0.55-0.55-0.55h-0.15"/>
	<path class="st0" d="M23.75,10.16c0,0,4.05,1.25,4.05,6.47s-4.05,6.47-4.05,6.47"/>
	<path class="st0" d="M25.02,6.05c2.63,0.81,7.07,3.96,7.07,10.58c0,6.62-4.45,9.76-7.07,10.58"/>
	<path class="st0" d="M14.42,12.1c0.16-0.64,0.33-1.11,0.5-1.45c0.25-0.52,0.78-0.84,1.35-0.84h1.16c0.73,0,1.39-0.42,1.7-1.08
		l0.72-1.54c0.19-0.4,0.28-0.83,0.28-1.27V3.26c0-0.9-0.73-1.63-1.63-1.63h-1.38c-0.57,0-1.11,0.22-1.51,0.62
		c-1.16,1.16-3.38,4.05-4.18,9.84"/>
	<path class="st0" d="M11.53,21.84c0.87,5.34,2.96,8.05,4.08,9.16c0.4,0.4,0.94,0.62,1.51,0.62h1.38c0.9,0,1.63-0.73,1.63-1.63
		v-2.65c0-0.44-0.1-0.87-0.28-1.27l-0.72-1.54c-0.31-0.66-0.97-1.08-1.7-1.08h-1.16c-0.57,0-1.11-0.32-1.35-0.84
		c-0.1-0.2-0.2-0.45-0.3-0.75"/>
</g>
</svg>
