<?xml version="1.0" encoding="utf-8"?>
<!-- Generator: Adobe Illustrator 23.0.0, SVG Export Plug-In . SVG Version: 6.00 Build 0)  -->
<svg version="1.1" id="Layer_1" xmlns="http://www.w3.org/2000/svg" xmlns:xlink="http://www.w3.org/1999/xlink" x="0px" y="0px"
	 viewBox="0 0 34.34 33.26" style="enable-background:new 0 0 34.34 33.26;" xml:space="preserve">
<style type="text/css">
	.st0{fill:none;stroke:#9aca3c;stroke-miterlimit:10;}
</style>
<g>
	<g>
		<path class="st0" d="M25.77,25.91c-1.25,1.62-2.95,2.87-4.91,3.57"/>
		<path class="st0" d="M6.3,12.5L6.3,12.5c0-6.01,4.87-10.88,10.88-10.88l0,0c6.01,0,10.88,4.87,10.88,10.88"/>
		<path class="st0" d="M8.48,12.53c-0.15-0.01-0.29-0.02-0.44-0.02c-3.42,0-6.19,2.77-6.19,6.19v1.13c0,3.42,2.77,6.19,6.19,6.19
			c0.15,0,0.29-0.01,0.44-0.02V12.53z"/>
		<path class="st0" d="M25.86,12.53c0.15-0.01,0.29-0.02,0.44-0.02c3.42,0,6.19,2.77,6.19,6.19v1.13c0,3.42-2.77,6.19-6.19,6.19
			c-0.15,0-0.29-0.01-0.44-0.02V12.53z"/>
		<path class="st0" d="M20.92,29.94c0,0.93-0.76,1.69-1.69,1.69h-4.13c-0.93,0-1.69-0.76-1.69-1.69l0,0c0-0.93,0.76-1.69,1.69-1.69
			h4.13C20.16,28.25,20.92,29.01,20.92,29.94L20.92,29.94z"/>
	</g>
</g>
</svg>
