<?xml version="1.0" encoding="utf-8"?>
<!-- Generator: Adobe Illustrator 23.0.0, SVG Export Plug-In . SVG Version: 6.00 Build 0)  -->
<svg version="1.1" id="Layer_1" xmlns="http://www.w3.org/2000/svg" xmlns:xlink="http://www.w3.org/1999/xlink" x="0px" y="0px"
	 viewBox="0 0 66.51 64.42" style="enable-background:new 0 0 66.51 64.42;" xml:space="preserve">
<style type="text/css">
	.st0{fill:none;stroke:#9aca3c;stroke-linecap:round;stroke-linejoin:round;stroke-miterlimit:10;}
	.st1{fill:#9aca3c;stroke:#9aca3c;stroke-linecap:round;stroke-linejoin:round;stroke-miterlimit:10;}
	.st2{fill:#9aca3c;}
	.st3{fill:none;stroke:#9aca3c;stroke-miterlimit:10;}
</style>
<g>
	<g>
		<polygon class="st0" points="26.58,46.11 30.88,44.46 35.52,46.11 39.66,44.46 44.45,46.11 44.45,16.1 26.58,16.1 		"/>
		<line class="st0" x1="30.06" y1="19.78" x2="39.35" y2="19.78"/>
		<line class="st0" x1="30.06" y1="22.26" x2="41" y2="22.26"/>
		<line class="st0" x1="30.06" y1="24.74" x2="37.7" y2="24.74"/>
		<line class="st0" x1="33.81" y1="27.22" x2="41" y2="27.22"/>
		<line class="st0" x1="30.06" y1="29.69" x2="39.35" y2="29.69"/>
		<line class="st0" x1="30.06" y1="32.48" x2="41" y2="32.48"/>
		<line class="st0" x1="37.41" y1="34.96" x2="41" y2="34.96"/>
		<line class="st0" x1="35.88" y1="37.44" x2="41" y2="37.44"/>
		<line class="st0" x1="33.88" y1="39.93" x2="41" y2="39.93"/>
		<circle class="st1" cx="26.58" cy="34.44" r="7.23"/>
		<g>
			<path class="st2" d="M26.87,30.79v0.61c0.14,0.01,0.28,0.02,0.43,0.03c0.14,0.01,0.28,0.03,0.42,0.06
				c0.14,0.02,0.26,0.05,0.38,0.08c0.12,0.03,0.22,0.06,0.32,0.09l-0.24,0.94c-0.24-0.06-0.46-0.11-0.66-0.14
				c-0.2-0.03-0.42-0.05-0.64-0.05v1.51l0.2,0.03c0.23,0.04,0.45,0.1,0.64,0.17c0.19,0.07,0.35,0.17,0.49,0.3
				c0.13,0.13,0.24,0.29,0.31,0.47c0.07,0.19,0.11,0.41,0.11,0.67v0.1c0,0.49-0.14,0.89-0.43,1.19c-0.29,0.3-0.72,0.47-1.31,0.53
				v0.71h-0.6v-0.68c-0.28-0.01-0.58-0.04-0.88-0.1c-0.3-0.05-0.58-0.13-0.82-0.23l0.26-0.95c0.22,0.08,0.45,0.14,0.69,0.19
				c0.24,0.05,0.49,0.07,0.76,0.09v-1.53l-0.09-0.02c-0.26-0.05-0.48-0.11-0.68-0.19c-0.2-0.08-0.37-0.19-0.51-0.32
				c-0.14-0.13-0.25-0.29-0.32-0.47c-0.07-0.18-0.11-0.41-0.11-0.66v-0.09c0-0.52,0.16-0.93,0.47-1.21
				c0.31-0.28,0.73-0.45,1.25-0.49v-0.64H26.87z M25.68,33.13c0,0.22,0.05,0.37,0.15,0.47c0.1,0.1,0.24,0.17,0.44,0.22v-1.37
				c-0.21,0.05-0.36,0.12-0.45,0.23C25.73,32.78,25.68,32.93,25.68,33.13z M27.48,35.68c0-0.21-0.05-0.37-0.15-0.47
				c-0.1-0.1-0.25-0.18-0.46-0.23v1.4c0.21-0.04,0.36-0.11,0.46-0.22C27.43,36.05,27.48,35.9,27.48,35.68z"/>
		</g>
	</g>
	<circle class="st3" cx="33.26" cy="32.21" r="29.94"/>
</g>
</svg>
