<?xml version="1.0" encoding="utf-8"?>
<!-- Generator: Adobe Illustrator 23.0.0, SVG Export Plug-In . SVG Version: 6.00 Build 0)  -->
<svg version="1.1" id="Layer_1" xmlns="http://www.w3.org/2000/svg" xmlns:xlink="http://www.w3.org/1999/xlink" x="0px" y="0px"
	 viewBox="0 0 48.98 47.44" style="enable-background:new 0 0 48.98 47.44;" xml:space="preserve">
<style type="text/css">
	.st0{fill:#9aca3c;}
</style>
<g>
	<g>
		<path class="st0" d="M4.07,25.44c-0.07,0-0.14,0-0.14,0c-0.21-0.07-0.35-0.28-0.42-0.56c-0.07-0.42-0.42-4.19,1.47-5.44
			c1.19-0.77,2.86-0.21,5.17,1.75c0.21,0.14,0.28,0.49,0.21,0.7c-0.07,0.28-0.28,0.42-0.56,0.49c0,0-3.35,0.14-5.24,2.86
			C4.42,25.37,4.28,25.44,4.07,25.44z M6.17,20.42c-0.21,0-0.42,0.07-0.63,0.14c-0.63,0.42-0.84,1.61-0.91,2.65
			c1.19-1.12,2.58-1.68,3.63-1.95C7.42,20.7,6.73,20.42,6.17,20.42z"/>
		<path class="st0" d="M11.75,20.63c-0.21,0-0.42-0.14-0.49-0.35c-0.07-0.21-2.3-4.61-9.91-4.68c-0.21,0-0.49-0.21-0.56-0.42
			c-0.07-0.28,0-0.56,0.21-0.7c0.21-0.21,5.1-4.61,8.45-2.79c1.88,1.05,2.86,3.84,2.86,8.31c0,0.28-0.21,0.56-0.42,0.63
			C11.82,20.63,11.82,20.63,11.75,20.63z M3.1,14.41c4.33,0.42,6.77,2.3,8.03,3.7c-0.21-2.79-0.91-4.54-2.16-5.24
			C7.28,11.9,4.77,13.16,3.1,14.41z"/>
		<path class="st0" d="M13.91,20.76c-0.07,0-0.14,0-0.28-0.07c-0.21-0.14-0.35-0.42-0.35-0.7c0.42-4.12,1.61-6.56,3.49-7.26
			c3.28-1.26,7.4,3.42,7.54,3.63s0.21,0.49,0.07,0.77c-0.14,0.28-0.35,0.42-0.63,0.35c-5.72-1.12-9.42,3-9.42,3.07
			C14.19,20.7,14.05,20.76,13.91,20.76z M18.03,13.85c-0.28,0-0.56,0.07-0.84,0.14c-1.19,0.49-2.02,1.95-2.44,4.54
			c1.4-1.12,3.98-2.65,7.54-2.51C21.03,14.97,19.43,13.85,18.03,13.85z"/>
		<path class="st0" d="M20.96,27.81c-0.21,0-0.42-0.14-0.49-0.35c-1.81-3.63-6.21-3.42-6.21-3.42c-0.21,0-0.49-0.14-0.56-0.42
			c-0.07-0.28-0.07-0.56,0.14-0.7c2.02-2.3,3.77-3.14,5.17-2.51c2.37,1.12,2.58,6.07,2.58,6.7c0,0.28-0.14,0.56-0.42,0.63
			C21.1,27.81,21.03,27.81,20.96,27.81z M15.66,22.86c1.26,0.14,3.07,0.7,4.54,2.16c-0.28-1.4-0.77-2.93-1.61-3.35
			C17.82,21.32,16.85,21.74,15.66,22.86z"/>
		<path class="st0" d="M42.25,44.64h-4.54c-0.14,0-0.35-0.07-0.42-0.21c-0.14-0.14-0.14-0.35-0.14-0.49
			c0.28-2.58,0.42-5.24,0.49-7.75c-4.61,3.91-16.33,11.59-27.5-0.49c-0.28,2.86-0.21,5.58,0.21,8.17c0,0.21,0,0.42-0.14,0.56
			c-0.14,0.14-0.28,0.21-0.42,0.21H5.19c-0.14,0-0.35-0.07-0.42-0.21c-0.07-0.14-0.14-0.35-0.14-0.56
			c0.07-0.63,1.81-14.66,6.35-21.29c0.07-0.14,0.28-0.21,0.42-0.28c0.14,0,0.35,0.07,0.42,0.21l1.12,1.33
			c0.21,0.21,0.21,0.56,0.07,0.77c0,0.07-1.88,3.84-2.72,9.14c2.58,0.7,14.8,3.42,27.22-0.42c-0.21-11.94-2.16-18.08-2.16-18.15
			c-0.07-0.21-0.07-0.42,0.07-0.56l1.12-2.02c0.07-0.21,0.28-0.28,0.49-0.28c0.14,0,0.35,0.14,0.49,0.28
			c6.91,11.66,5.3,30.57,5.24,31.41C42.81,44.36,42.53,44.64,42.25,44.64z M38.34,43.31h3.42c0.21-3.21,0.84-18.92-4.61-29.11
			l-0.49,0.91c0.42,1.47,1.95,7.68,2.16,18.78c0,0.14-0.07,0.35-0.14,0.42c0.07,0.14,0.14,0.28,0.14,0.42
			C38.76,37.59,38.62,40.45,38.34,43.31z M5.89,43.31H9.1c-0.42-2.93-0.35-6,0.07-9.14l0,0c0.7-4.89,2.16-8.52,2.72-9.77l-0.35-0.42
			C7.98,29.7,6.31,40.38,5.89,43.31z M11.61,35.42c10.33,10.4,20.73,3.7,25.48-0.49C26.27,38.01,15.87,36.33,11.61,35.42z"/>
		<path class="st0" d="M30.6,20.9c-0.21,0-0.35-0.07-0.49-0.28c-0.28-0.42-2.65-4.26-1.47-6.7c0.77-1.47,2.51-2.02,5.37-1.61
			c0.21,0,0.42,0.21,0.49,0.49s0,0.56-0.21,0.7c0,0-2.72,2.51-3.21,6.84c0,0.28-0.21,0.49-0.42,0.56
			C30.67,20.9,30.67,20.9,30.6,20.9z M32.34,13.58c-1.4,0-2.3,0.35-2.65,1.05c-0.49,0.98,0.07,2.65,0.63,3.91
			c0.56-2.3,1.61-3.98,2.37-5.03C32.62,13.58,32.48,13.58,32.34,13.58z"/>
		<path class="st0" d="M37.3,11.76c-0.07,0-0.14,0-0.21,0c-0.21-0.07-0.35-0.28-0.42-0.56c-0.28-3.98,0.49-6.56,2.16-7.75
			c3.28-2.23,8.93,1.95,9.14,2.16c0.21,0.14,0.28,0.49,0.21,0.77c-0.07,0.28-0.28,0.49-0.56,0.49c0,0,0,0-0.07,0
			c-6.28,0-9.91,4.75-9.98,4.82C37.58,11.69,37.44,11.76,37.3,11.76z M41.21,4.08c-0.63,0-1.26,0.14-1.75,0.49
			c-1.12,0.77-1.68,2.44-1.68,5.1c1.33-1.33,4.05-3.49,7.96-4.05C44.49,4.85,42.74,4.08,41.21,4.08z"/>
		<path class="st0" d="M34.37,11.27c-0.14,0-0.21-0.07-0.35-0.14c-0.07,0-4.4-3.28-9.91-0.77c-0.21,0.14-0.49,0-0.63-0.21
			c-0.14-0.21-0.14-0.56-0.07-0.77c0.14-0.21,3.21-5.65,6.63-5.24c1.95,0.28,3.56,2.3,4.82,6.21c0.07,0.28,0,0.56-0.21,0.77
			C34.65,11.27,34.51,11.27,34.37,11.27z M28.43,8.13c2.02,0,3.7,0.56,4.82,1.12c-0.98-2.3-2.02-3.56-3.28-3.7
			c-1.61-0.21-3.35,1.47-4.47,3C26.55,8.27,27.53,8.13,28.43,8.13z"/>
	</g>
</g>
</svg>
