<?xml version="1.0" encoding="utf-8"?>
<!-- Generator: Adobe Illustrator 23.0.0, SVG Export Plug-In . SVG Version: 6.00 Build 0)  -->
<svg version="1.1" id="Layer_1" xmlns="http://www.w3.org/2000/svg" xmlns:xlink="http://www.w3.org/1999/xlink" x="0px" y="0px"
	 viewBox="0 0 29.57 28.64" style="enable-background:new 0 0 29.57 28.64;" xml:space="preserve">
<style type="text/css">
	.st0{fill:none;stroke:#9aca3c;stroke-miterlimit:10;}
</style>
<g>
	<path class="st0" d="M14.24,6.41c0,0,3.7-1.06,6.29,2.9s0.15,6.92,0.15,6.92"/>
	<path class="st0" d="M10.78,21.36c3.16,3.75,6.26,4.64,7.65,4.93c0.5,0.1,1.03,0,1.46-0.28l1.05-0.69
		c0.68-0.45,0.87-1.37,0.43-2.05l-1.32-2.01c-0.22-0.33-0.51-0.61-0.85-0.82l-1.31-0.81c-0.56-0.35-1.28-0.34-1.83,0.02l-0.88,0.58
		c-0.44,0.29-1,0.31-1.44,0.03c-0.18-0.11-0.38-0.25-0.6-0.42l-5.01-7.31c-0.2-0.56-0.3-1.01-0.35-1.35
		c-0.07-0.52,0.17-1.03,0.61-1.31l0.88-0.58c0.55-0.36,0.85-1.01,0.75-1.67L9.79,6.09c-0.06-0.39-0.2-0.77-0.42-1.1L8.06,2.98
		C7.61,2.3,6.69,2.1,6.01,2.55L4.96,3.24C4.53,3.52,4.23,3.96,4.12,4.47c-0.3,1.45-0.55,4.76,1.73,9.55
		C5.85,14.01,7.77,17.8,10.78,21.36z"/>
	<path class="st0" d="M13.16,2.66c2.4-0.69,7.34-0.51,10.63,4.51c3.29,5.02,1.48,9.62-0.11,11.55"/>
</g>
</svg>
