<svg xmlns="http://www.w3.org/2000/svg" itemprop="logo" class="consul" aria-describedby="desc-logo-svg" viewBox="0 0 241.93 105.2">
<desc id="desc-logo-svg" stroke="none" fill="#9aca3d" stroke-width="1px">Consul - Bem Pensado</desc>
<g stroke="none" fill="#9aca3d" stroke-width="1px">
<defs>
<style>.consul{ fill:#9aca3d; }.bempensado{isolation:isolate; fill: currentColor;}</style>
</defs>
<g class="consul" id="Layer_2" data-name="Layer 2" stroke="none" fill="#9aca3d" stroke-width="1px"><g id="Layer_1-2" data-name="Layer 1" stroke="none" fill="#9aca3d" stroke-width="1px">
<path class="cls-1" d="M65.65,12.63c-12.13,0-23.93,9.39-23.93,24.51s10.8,24.35,23.93,24.35A23.86,23.86,0,0,0,89.58,37.71q0-.28,0-.55C89.58,22,78.69,12.63,65.65,12.63Zm0,36.4C58.58,49,55,44,55,37.15s3.57-12,10.64-12,10.64,5.07,10.64,12S72.63,49,65.65,49Z" stroke="none" fill="#9aca3d" stroke-width="1px"></path>
<path class="cls-1" d="M40.3,48.53c-.5-1.16-.91-1.91-2.49-1.25a19.57,19.57,0,0,1-7.48,1.66c-9.39,0-16.29-4.74-16.54-16.62-.25-12.13,6.57-18.45,16.7-18.45,4.32,0,6.9.33,10.14,1.58a2.23,2.23,0,0,0,.91.17c.67,0,1.16-.58,1.58-1.16A9.7,9.7,0,0,0,45,8.89a6.79,6.79,0,0,0-3-5.82C39.39,1.33,35.24.83,30.75.83,13.71.83,0,12.8,0,32.33c0,20,13.46,29.5,28.17,29.5,5.9,0,12.13-1.33,15.71-3.41,1.41-.83,1.66-1.5.67-2.83A44.12,44.12,0,0,1,40.3,48.53Z" stroke="none" fill="#9aca3d" stroke-width="1px"></path>
<path class="cls-1" d="M240.74.91A11,11,0,0,0,236.17,0c-2.08,0-7.48.67-7.48,6.23V58.67c0,1.58.5,2.08,1.91,2.08H240c1.41,0,1.91-.5,1.91-2.08V2.91A1.82,1.82,0,0,0,240.74.91Z" stroke="none" fill="#9aca3d" stroke-width="1px"></path><path class="cls-1" d="M114.76,12.63C101.55,12.63,93,20.69,93,33.24V58.67c0,1.58.5,2.08,1.91,2.08h9.31c1.41,0,1.91-.5,1.91-2.08V36c0-3.49.17-10.55,8.72-10.55s8.06,6.9,8.06,10.39V58.67c0,1.58.5,2.08,1.91,2.08h9.31c1.41,0,1.91-.5,1.91-2.08V32.91C136,20.36,128.39,12.63,114.76,12.63Z" stroke="none" fill="#9aca3d" stroke-width="1px"></path>
<path class="cls-1" d="M223,13.55a10.33,10.33,0,0,0-4.49-.91c-2,0-7.48.66-7.48,6.23V38.56c0,3.49.41,10.55-8.15,10.55s-8.39-6.9-8.39-10.39V15.54a1.82,1.82,0,0,0-1.16-2,10.34,10.34,0,0,0-4.49-.91c-2,0-7.48.66-7.48,6.23V41.72c0,12.55,7.9,20.19,21.27,20.19,13.21,0,21.52-8.31,21.52-20.86V15.54A1.82,1.82,0,0,0,223,13.55Z" stroke="none" fill="#9aca3d" stroke-width="1px"></path>
<path class="cls-1" d="M161.38,31.33l-4.82-.75c-4.07-.67-5.48-1.25-5.48-3.74,0-3,4-3.24,9-3.24a42.83,42.83,0,0,1,8.73,1c2.49.5,3.49,1.08,4.15,1.08s1.25-.66,1.58-1.16c2.41-3.57,1.66-7.4-1-9.39-3.16-2.41-10.22-3-14.46-3-6.07,0-20,1.66-20,15.29,0,10.47,6.4,13,15.79,14.54l4.65.75c4.65.75,6.31,1.41,6.31,4,0,3.49-5.57,3.41-8.23,3.41a42.36,42.36,0,0,1-14-2.83,1.48,1.48,0,0,0-2.08,1.08l-2.24,7.48a1.69,1.69,0,0,0,.75,2.24,46.65,46.65,0,0,0,18,3.57c14.38,0,20.44-7.48,20.44-15.79C178.5,36.15,173,33.16,161.38,31.33Z" stroke="none" fill="#9aca3d" stroke-width="1px"></path>
</g>
<g class="bempensado" stroke="none" fill="#736c6b" stroke-width="1px">
<path class="cls-3" d="M34.55,82.14A1.68,1.68,0,0,1,35,80.84a2.11,2.11,0,0,1,1-.52,15.51,15.51,0,0,1,1.81-.2Q39.1,80,41.46,80a16.49,16.49,0,0,1,4.21.45,7.24,7.24,0,0,1,2.6,1.19,4,4,0,0,1,1.31,1.71,5.74,5.74,0,0,1,.36,2A4.85,4.85,0,0,1,49.7,87a4.91,4.91,0,0,1-.59,1.19,3.92,3.92,0,0,1-.8.86,4.55,4.55,0,0,1-.87.55,4.55,4.55,0,0,1,3.2,4.58,6.65,6.65,0,0,1-.37,2.22,3.93,3.93,0,0,1-1.36,1.81,7.38,7.38,0,0,1-2.78,1.21,19.91,19.91,0,0,1-4.59.44q-1.35,0-2.56,0l-2.13-.08q-.93,0-1.53-.1l-.77-.06ZM43,88.32a5.61,5.61,0,0,0,1.66-.21,3.16,3.16,0,0,0,1.1-.56,2,2,0,0,0,.6-.84,3,3,0,0,0,.18-1.05,2.64,2.64,0,0,0-.24-1.11,2.12,2.12,0,0,0-.8-.88A4.63,4.63,0,0,0,44,83.08a10.43,10.43,0,0,0-2.27-.21q-1.63,0-2.67.08t-1.29.14v5.22Zm-5.22,8.45q.25.06,1.25.14t2.85.08a14.34,14.34,0,0,0,2.5-.18A4.91,4.91,0,0,0,46,96.25a2.24,2.24,0,0,0,.9-.93A3,3,0,0,0,47.21,94a3.2,3.2,0,0,0-.18-1.1,2.11,2.11,0,0,0-.62-.88,3.19,3.19,0,0,0-1.15-.6,6,6,0,0,0-1.78-.22H37.81Z" stroke="none" fill="#736c6b" stroke-width="1px"></path>
<path class="cls-3" d="M65.8,98.54l-.7.39a7.22,7.22,0,0,1-1.19.48,13.47,13.47,0,0,1-1.66.39,11.74,11.74,0,0,1-2.06.17,8.83,8.83,0,0,1-2.93-.48,6.83,6.83,0,0,1-2.39-1.42,6.68,6.68,0,0,1-1.61-2.3,7.82,7.82,0,0,1-.59-3.13,8,8,0,0,1,.58-3.08,7,7,0,0,1,1.6-2.39,7.21,7.21,0,0,1,2.41-1.54,8.24,8.24,0,0,1,3-.55,8.07,8.07,0,0,1,2.58.38,6,6,0,0,1,1.9,1,4.14,4.14,0,0,1,1.56,3.27A4.26,4.26,0,0,1,66,91.54a3.23,3.23,0,0,1-1.29,1.38,7.7,7.7,0,0,1-2.5.9,20.32,20.32,0,0,1-4,.32H57.14l-1.05,0a3.48,3.48,0,0,0,1.39,2.32,5.41,5.41,0,0,0,3.33.88,7.61,7.61,0,0,0,2.46-.39,7.93,7.93,0,0,0,.84-.34l.52-.25Zm-9.86-6.66,1.24,0h1.18a12.86,12.86,0,0,0,2.5-.2,5.07,5.07,0,0,0,1.49-.51,1.57,1.57,0,0,0,.7-.7,2,2,0,0,0,.17-.81,1.76,1.76,0,0,0-.86-1.6,3.94,3.94,0,0,0-2.12-.53,4.29,4.29,0,0,0-1.83.37,4,4,0,0,0-1.32,1,4.43,4.43,0,0,0-.83,1.39A5,5,0,0,0,55.95,91.89Z" stroke="none" fill="#736c6b" stroke-width="1px"></path>
<path class="cls-3" d="M68.44,90.51a5.47,5.47,0,0,1,.48-2.36,4.76,4.76,0,0,1,1.31-1.68,5.8,5.8,0,0,1,2-1,8.17,8.17,0,0,1,2.44-.35,7.27,7.27,0,0,1,3.12.65,5.17,5.17,0,0,1,2.19,1.91,5.21,5.21,0,0,1,2.16-1.91,7,7,0,0,1,3.06-.65,8.37,8.37,0,0,1,2.41.34,5.46,5.46,0,0,1,1.94,1,4.83,4.83,0,0,1,1.29,1.68,5.48,5.48,0,0,1,.48,2.36v9.1h-3.2v-8a3.7,3.7,0,0,0-.87-2.77A3.28,3.28,0,0,0,84.84,88a3.34,3.34,0,0,0-2.4.93,4,4,0,0,0-1,3v7.67h-3.2V91.92a4,4,0,0,0-1-3,3.65,3.65,0,0,0-4.76-.08,3.67,3.67,0,0,0-.9,2.78v8h-3.2Z" stroke="none" fill="#736c6b" stroke-width="1px"></path>
<path class="cls-3" d="M100.68,93.18a9.86,9.86,0,0,1,.56-3.47,7.07,7.07,0,0,1,1.57-2.53,6.65,6.65,0,0,1,2.44-1.56,9,9,0,0,1,3.17-.53,7.6,7.6,0,0,1,2.95.56,7.32,7.32,0,0,1,2.34,1.54,7,7,0,0,1,1.56,2.36,7.8,7.8,0,0,1,.56,3,7.94,7.94,0,0,1-.55,3,7,7,0,0,1-1.52,2.34,6.92,6.92,0,0,1-2.27,1.53,7.29,7.29,0,0,1-2.85.55,6.26,6.26,0,0,1-2.84-.62,5.55,5.55,0,0,1-1.94-1.52v7.38h-3.2Zm7.53,3.93a4.32,4.32,0,0,0,1.76-.35,4.11,4.11,0,0,0,1.38-1,4.27,4.27,0,0,0,.88-1.46,5.26,5.26,0,0,0,.31-1.83,5.07,5.07,0,0,0-.31-1.78,4.16,4.16,0,0,0-.88-1.43,4.24,4.24,0,0,0-1.38-1A4.33,4.33,0,0,0,108.2,88a4.48,4.48,0,0,0-1.75.34,4.07,4.07,0,0,0-2.27,2.34,5.36,5.36,0,0,0,0,3.66,4.56,4.56,0,0,0,.88,1.46,4,4,0,0,0,1.36,1A4.38,4.38,0,0,0,108.2,97.11Z" stroke="none" fill="#736c6b" stroke-width="1px"></path>
<path class="cls-3" d="M130.83,98.54q-.22.14-.7.39a7.18,7.18,0,0,1-1.19.48,13.41,13.41,0,0,1-1.66.39,11.74,11.74,0,0,1-2.06.17,8.82,8.82,0,0,1-2.93-.48,6.82,6.82,0,0,1-2.39-1.42,6.68,6.68,0,0,1-1.61-2.3,7.82,7.82,0,0,1-.59-3.13,8,8,0,0,1,.58-3.08,7,7,0,0,1,1.6-2.39,7.21,7.21,0,0,1,2.42-1.54,8.23,8.23,0,0,1,3-.55,8.07,8.07,0,0,1,2.58.38,6,6,0,0,1,1.9,1,4.14,4.14,0,0,1,1.56,3.27,4.26,4.26,0,0,1-.37,1.78,3.23,3.23,0,0,1-1.29,1.38,7.7,7.7,0,0,1-2.5.9,20.32,20.32,0,0,1-4,.32h-1.05l-1.05,0a3.48,3.48,0,0,0,1.39,2.32,5.41,5.41,0,0,0,3.33.88,7.51,7.51,0,0,0,1.35-.11,7.58,7.58,0,0,0,1.11-.28,7.94,7.94,0,0,0,.84-.34l.52-.25ZM121,91.89l1.24,0h1.18a12.84,12.84,0,0,0,2.5-.2,5.06,5.06,0,0,0,1.49-.51,1.58,1.58,0,0,0,.7-.7,2.06,2.06,0,0,0,.17-.81,1.76,1.76,0,0,0-.86-1.6,3.94,3.94,0,0,0-2.12-.53,4.29,4.29,0,0,0-1.83.37,4,4,0,0,0-1.32,1,4.42,4.42,0,0,0-.83,1.39A5,5,0,0,0,121,91.89Z" stroke="none" fill="#736c6b" stroke-width="1px"></path>
<path class="cls-3" d="M133.47,91.07a5.84,5.84,0,0,1,.52-2.51,5.46,5.46,0,0,1,1.43-1.88,6.36,6.36,0,0,1,2.16-1.18,8.8,8.8,0,0,1,2.74-.41,8.93,8.93,0,0,1,2.75.41,6.34,6.34,0,0,1,2.18,1.18,5.33,5.33,0,0,1,1.42,1.88,6,6,0,0,1,.51,2.51v8.51H144V91.89A4.12,4.12,0,0,0,143,89a4.24,4.24,0,0,0-5.46,0,4.16,4.16,0,0,0-.91,2.91v7.69h-3.2Z" stroke="none" fill="#736c6b" stroke-width="1px"></path>
<path class="cls-3" d="M150.52,96.07a4.48,4.48,0,0,0,.7.37,12.76,12.76,0,0,0,1.25.46,12.91,12.91,0,0,0,1.7.41,12,12,0,0,0,2.08.17,6.37,6.37,0,0,0,2.39-.38,1.33,1.33,0,0,0,.93-1.31A1.36,1.36,0,0,0,159,94.6a4.92,4.92,0,0,0-2.11-.58l-2.19-.25a10.31,10.31,0,0,1-2.06-.41,5.3,5.3,0,0,1-1.61-.8,3.57,3.57,0,0,1-1.05-1.25,3.88,3.88,0,0,1-.38-1.78,4.18,4.18,0,0,1,.35-1.7A3.79,3.79,0,0,1,151,86.41a5.53,5.53,0,0,1,2-1,10.87,10.87,0,0,1,3-.35,12.65,12.65,0,0,1,4.53.65q1.61.65,1.61,1.69A1.29,1.29,0,0,1,162,88a2.69,2.69,0,0,1-.28.45,1.74,1.74,0,0,1-.32.32,1,1,0,0,1-.25.15,3.36,3.36,0,0,0-.49-.35,5.65,5.65,0,0,0-1-.48,10.68,10.68,0,0,0-1.54-.42,10.5,10.5,0,0,0-2.08-.18q-3.26,0-3.26,1.71a1.22,1.22,0,0,0,.62,1.11,4.47,4.47,0,0,0,1.77.52l2.87.36a7.67,7.67,0,0,1,3.62,1.28,3.34,3.34,0,0,1,1.29,2.85,4,4,0,0,1-1.67,3.37,7.87,7.87,0,0,1-4.81,1.26,15.47,15.47,0,0,1-2.75-.22,17,17,0,0,1-2.15-.52,10.86,10.86,0,0,1-1.47-.58,4.44,4.44,0,0,1-.73-.42Z" stroke="none" fill="#736c6b" stroke-width="1px"></path>
<path class="cls-3" d="M178,99.52q-.28.06-.88.13l-1.42.14-1.82.13q-1,.06-2.11.06a13.94,13.94,0,0,1-3.58-.38,6.09,6.09,0,0,1-2.19-1,3.24,3.24,0,0,1-1.09-1.46,5,5,0,0,1-.29-1.7,5.38,5.38,0,0,1,.35-2,3.35,3.35,0,0,1,1.15-1.46,5.6,5.6,0,0,1,2.09-.88,14.36,14.36,0,0,1,3.14-.29q1.07,0,2,.07l1.43.13a3.64,3.64,0,0,0-.32-1.63,2.51,2.51,0,0,0-.88-1,3.63,3.63,0,0,0-1.35-.51,9.93,9.93,0,0,0-1.74-.14,7.45,7.45,0,0,0-2.57.37,5.12,5.12,0,0,0-1.28.62,3.41,3.41,0,0,1-.46-.53,1.54,1.54,0,0,1-.29-1,1.58,1.58,0,0,1,.21-.77,1.82,1.82,0,0,1,.74-.67,4.85,4.85,0,0,1,1.43-.46,12.59,12.59,0,0,1,2.27-.17,13.12,13.12,0,0,1,3,.32,6.59,6.59,0,0,1,2.34,1,4.72,4.72,0,0,1,1.53,1.85,6.43,6.43,0,0,1,.55,2.78Zm-3.17-6.23-1.05-.17a17.45,17.45,0,0,0-2.32-.11,5.17,5.17,0,0,0-2.78.58,2,2,0,0,0-.87,1.81,2.3,2.3,0,0,0,.18.93,1.64,1.64,0,0,0,.63.72,3.48,3.48,0,0,0,1.22.45,10.06,10.06,0,0,0,1.92.15,16.58,16.58,0,0,0,2-.1c.51-.07.84-.12,1-.15Z" stroke="none" fill="#736c6b" stroke-width="1px"></path>
<path class="cls-3" d="M192.41,80.37a1.38,1.38,0,0,1,.44-1.12,1.89,1.89,0,0,1,1.25-.37A3.19,3.19,0,0,1,195,79l.56.18V91.86a10.05,10.05,0,0,1-.58,3.57A7.05,7.05,0,0,1,193.42,98,6.5,6.5,0,0,1,191,99.47a8.65,8.65,0,0,1-3,.51,8,8,0,0,1-3-.56,7.35,7.35,0,0,1-2.4-1.54A7,7,0,0,1,181,95.51a7.63,7.63,0,0,1-.58-3,8,8,0,0,1,.55-3,7.21,7.21,0,0,1,1.52-2.36,6.8,6.8,0,0,1,2.27-1.54,7.29,7.29,0,0,1,2.85-.55,6.22,6.22,0,0,1,2.87.63,5.71,5.71,0,0,1,1.94,1.53Zm0,12.16a5,5,0,0,0-.32-1.8,4.6,4.6,0,0,0-.88-1.46,4,4,0,0,0-1.36-1,4.6,4.6,0,0,0-3.52,0,4.25,4.25,0,0,0-1.36,1,4.1,4.1,0,0,0-.88,1.45,5.24,5.24,0,0,0-.31,1.83,5.11,5.11,0,0,0,.31,1.81,4.12,4.12,0,0,0,.88,1.43,4.24,4.24,0,0,0,1.36,1,4.28,4.28,0,0,0,1.77.35,4.47,4.47,0,0,0,1.75-.34,4,4,0,0,0,1.36-.93,4.27,4.27,0,0,0,.88-1.43A5.15,5.15,0,0,0,192.41,92.53Z" stroke="none" fill="#736c6b" stroke-width="1px"></path>
<path class="cls-3" d="M205.41,85.09a8.21,8.21,0,0,1,3,.56,7.5,7.5,0,0,1,2.46,1.56,7.2,7.2,0,0,1,1.63,2.36,7.67,7.67,0,0,1,0,5.9,7.18,7.18,0,0,1-1.63,2.36,7.67,7.67,0,0,1-2.46,1.57,8.34,8.34,0,0,1-6.09,0,7.68,7.68,0,0,1-2.46-1.57,7.2,7.2,0,0,1-1.63-2.36,7.67,7.67,0,0,1,0-5.9,7.22,7.22,0,0,1,1.63-2.36,7.51,7.51,0,0,1,2.46-1.56A8.21,8.21,0,0,1,205.41,85.09Zm0,12a4.42,4.42,0,0,0,1.77-.35,4,4,0,0,0,1.39-1,4.69,4.69,0,0,0,.9-1.46,5,5,0,0,0,.32-1.81,5.18,5.18,0,0,0-.32-1.84,4.45,4.45,0,0,0-.9-1.47,4.1,4.1,0,0,0-1.39-1,4.66,4.66,0,0,0-3.55,0,4.11,4.11,0,0,0-1.37,1,4.41,4.41,0,0,0-.9,1.47,5.16,5.16,0,0,0-.32,1.84,4.93,4.93,0,0,0,.32,1.81,4.64,4.64,0,0,0,.9,1.46,4,4,0,0,0,1.38,1A4.39,4.39,0,0,0,205.41,97.14Z" stroke="none" fill="#736c6b" stroke-width="1px"></path>
</g>
</g></g>
</svg>