<?xml version="1.0" encoding="utf-8"?>
<!-- Generator: Adobe Illustrator 16.0.0, SVG Export Plug-In . SVG Version: 6.00 Build 0)  -->
<!DOCTYPE svg PUBLIC "-//W3C//DTD SVG 1.1//EN" "http://www.w3.org/Graphics/SVG/1.1/DTD/svg11.dtd">
<svg version="1.1" id="Layer_1" xmlns="http://www.w3.org/2000/svg" xmlns:xlink="http://www.w3.org/1999/xlink" x="0px" y="0px"
	 width="98.983px" height="80.004px" viewBox="0 0 98.983 80.004" enable-background="new 0 0 98.983 80.004" xml:space="preserve">
<path fill="#9ACA3D" d="M98.981,16.939c0-1.477-1.177-2.678-2.628-2.678c-5.626,0-5.269,15.678-5.269,15.678v16.572
	c0,1.102,0.46,2.074,1.139,2.828c0.65,0.719,1.045,1.674,1.045,2.73l-2.188,23.906c0,2.227,1.767,4.027,3.951,4.027
	c2.182,0,3.951-1.801,3.951-4.027L98.981,16.939z"/>
<path fill="#9ACA3D" d="M11.566,14.716c-0.031-0.298-0.277-0.528-0.579-0.528c-0.323,0-0.583,0.266-0.583,0.593l0.146,18.374
	c0,0.451-0.361,0.82-0.806,0.82c-0.44,0-0.802-0.369-0.802-0.82L8.651,14.779c0-0.331-0.259-0.594-0.583-0.594
	c-0.322,0-0.583,0.263-0.583,0.594v18.375c0,0.451-0.36,0.82-0.806,0.82c-0.442,0-0.803-0.369-0.803-0.82V14.779
	c0-0.331-0.259-0.594-0.581-0.594c-0.324,0-0.586,0.263-0.586,0.594L4.418,33.154c0,0.451-0.36,0.82-0.802,0.82
	c-0.444,0-0.806-0.369-0.806-0.82l0.146-18.375c0-0.331-0.261-0.594-0.583-0.594c-0.303,0-0.55,0.229-0.578,0.53L0.059,34.371
	C0.02,34.664,0,34.961,0,35.266c0,1.328,0.375,2.569,1.024,3.615v0.004l2.589,4.221c0.557,0.988,0.875,2.133,0.875,3.354
	L2.741,75.861c0,2.219,1.764,4.014,3.938,4.014c2.177,0,3.941-1.795,3.941-4.014L8.87,46.459c0-1.221,0.322-2.365,0.875-3.354
	l2.595-4.221l0.001-0.004c0.644-1.049,1.018-2.289,1.018-3.615c0-0.305-0.017-0.602-0.057-0.895L11.566,14.716z"/>
<path fill="#9ACA3D" d="M51.272,14.16c-17.819,0-32.261,14.721-32.261,32.887c0,18.162,14.442,32.887,32.261,32.887
	c17.816,0,32.262-14.725,32.262-32.887C83.534,28.881,69.089,14.16,51.272,14.16z M51.272,70.502c-3.219,0-6.331-0.664-9.254-1.973
	c-0.974-0.439-1.417-1.6-0.988-2.592c0.428-0.994,1.566-1.443,2.542-1.008c2.429,1.088,5.021,1.641,7.7,1.641
	c10.562,0,19.154-8.758,19.154-19.523c0-1.486-0.164-2.967-0.488-4.398c-0.238-1.055,0.41-2.111,1.449-2.357
	c1.034-0.24,2.072,0.416,2.311,1.477c0.389,1.721,0.586,3.498,0.586,5.279C74.284,59.979,63.962,70.502,51.272,70.502z"/>
<path fill="#087DC2" d="M75.98,9.209c-0.343-0.199-0.601-0.535-0.703-0.92c-0.103-0.387-0.05-0.81,0.149-1.156
	c0.197-0.347,0.533-0.604,0.916-0.707c0.382-0.104,0.797-0.048,1.142,0.152c0.345,0.202,0.603,0.538,0.706,0.925
	c0.104,0.386,0.047,0.806-0.15,1.153c-0.199,0.348-0.531,0.606-0.914,0.711C76.739,9.467,76.325,9.412,75.98,9.209 M83.008,0
	c-4.922,1.178-9.955,3.92-14.54,7.945c-3.855,3.39-7.395,7.686-10.282,12.734c-4.462,7.807-6.605,16.076-6.54,23.434l-13.727,9.506
	c-0.15,0.129-0.331,0.221-0.391,0.326c-0.342,0.598-0.104,1.33,0.477,1.668c0.159,0.094,0.338,0.166,0.517,0.162l13.974-2.311
	l5.008,13.379c0.107,0.17,0.257,0.289,0.473,0.416c0.502,0.291,1.174,0.09,1.516-0.508c0.062-0.109,0.121-0.266,0.163-0.459
	l1.29-16.852c6.312-3.629,12.298-9.617,16.742-17.391c2.216-3.876,3.855-7.868,4.941-11.805c-2.74-0.022-5.236-0.669-7.424-1.943
	c-0.645-0.377-1.263-0.809-1.854-1.293c-0.646-0.531-0.746-1.489-0.221-2.139c0.472-0.586,1.289-0.724,1.92-0.357
	c0.069,0.041,0.137,0.088,0.201,0.141c0.465,0.383,0.945,0.714,1.437,1.002c2.106,1.229,4.419,1.617,6.675,1.533
	c0.034-0.166,0.07-0.333,0.101-0.5C84.625,10.668,84.46,4.896,83.008,0"/>
<path fill="#016334" d="M61.349,15.805c-1.119,1.537-2.181,3.158-3.163,4.875c-4.462,7.807-6.605,16.076-6.54,23.434l-13.727,9.506
	c-0.15,0.129-0.331,0.221-0.391,0.326c-0.342,0.598-0.104,1.33,0.477,1.668c0.159,0.094,0.338,0.166,0.517,0.162l13.974-2.311
	l4.563,12.19c0.948-0.307,1.855-0.701,2.733-1.147l1.153-15.066c3.117-1.792,6.152-4.164,8.964-7.037
	c-0.096-0.969,0.521-1.887,1.479-2.113c0.167-0.039,0.333-0.047,0.496-0.041c2.117-2.444,4.078-5.184,5.803-8.199
	c0.403-0.705,0.766-1.418,1.131-2.13C74.861,23.321,68.685,18.262,61.349,15.805z"/>
</svg>
