<?xml version="1.0" encoding="utf-8"?>
<!-- Generator: Adobe Illustrator 16.0.0, SVG Export Plug-In . SVG Version: 6.00 Build 0)  -->
<!DOCTYPE svg PUBLIC "-//W3C//DTD SVG 1.1//EN" "http://www.w3.org/Graphics/SVG/1.1/DTD/svg11.dtd">
<svg version="1.1" id="Layer_1" xmlns="http://www.w3.org/2000/svg" xmlns:xlink="http://www.w3.org/1999/xlink" x="0px" y="0px"
	 width="85.752px" height="62.39px" viewBox="0 0 85.752 62.39" enable-background="new 0 0 85.752 62.39" xml:space="preserve">
<path fill="#077DC1" d="M31.215,34.766c-0.939,0-1.862-0.381-2.526-1.045c-0.668-0.666-1.047-1.588-1.047-2.526
	c0-0.939,0.379-1.861,1.047-2.525c0.665-0.664,1.583-1.045,2.526-1.045c0.941,0,1.863,0.381,2.528,1.045s1.047,1.586,1.047,2.525
	c0,0.938-0.381,1.86-1.047,2.526C33.074,34.385,32.156,34.766,31.215,34.766 M22.84,0c-0.413,0-0.83,0.029-1.25,0.092
	C15.906,0.925,10.119,4.43,7.794,8.888c-3.474,6.659-1.541,11.704,2.699,15.604c2.777,2.558,7.679,5.229,12.336,5.439
	c2.196,0.097,2.081,2.644,0.37,3.253c-1.221,0.44-2.838,0.802-4.64,0.802c-1.913,0-4.033-0.408-6.108-1.562
	c-1.517-0.84-3.013-1.214-4.413-1.214c-4.932,0-8.678,4.614-7.947,9.608c0.833,5.678,4.341,11.461,8.799,13.784
	c2.386,1.242,4.566,1.792,6.559,1.792c3.575,0,6.552-1.771,9.06-4.489c2.56-2.776,5.235-7.675,5.441-12.326
	c0.051-1.135,0.754-1.653,1.508-1.653c0.706,0,1.454,0.455,1.75,1.279c0.903,2.515,1.477,6.711-0.762,10.741
	c-3.56,6.401,1.265,12.442,7.145,12.442c0.414,0,0.832-0.03,1.253-0.093c5.683-0.829,11.468-4.336,13.792-8.79
	c3.476-6.664,1.541-11.705-2.698-15.611c-2.777-2.555-7.68-5.231-12.336-5.438c-2.194-0.097-2.08-2.641-0.37-3.253
	c1.22-0.438,2.836-0.799,4.637-0.799c1.913,0,4.034,0.406,6.112,1.562c1.516,0.84,3.012,1.212,4.412,1.212
	c4.931,0,8.678-4.614,7.948-9.606C61.508,15.894,58,10.111,53.539,7.789c-2.385-1.242-4.563-1.794-6.556-1.794
	c-3.575,0-6.553,1.771-9.06,4.491c-2.559,2.776-5.232,7.675-5.444,12.329c-0.05,1.133-0.752,1.648-1.505,1.648
	c-0.705,0-1.454-0.453-1.75-1.279c-0.905-2.515-1.478-6.711,0.762-10.741C33.542,6.044,28.72,0,22.84,0"/>
<g>
	<g>
		<path fill="#9AC440" d="M84.853,29.31c-0.343-0.225-0.73-0.333-1.114-0.333c-0.652,0-1.293,0.312-1.681,0.888
			c-1.168,1.734-3.122,2.771-5.228,2.771c-1.935,0-3.849-1.055-5.119-2.82l-0.027-0.034l-0.082-0.104l-0.056-0.06l-0.077-0.078
			l-0.079-0.071l-0.066-0.055l-0.103-0.077l-0.038-0.026l-0.022-0.013l-0.11-0.065l-0.067-0.036l-0.1-0.045l-0.087-0.038
			l-0.083-0.027l-0.106-0.035l-0.07-0.017l-0.12-0.025l-0.072-0.011l-0.119-0.014l-0.088-0.004l-0.102-0.001l-0.11,0.005
			l-0.079,0.006l-0.126,0.019l-0.063,0.011l-0.125,0.03l-0.064,0.019l-0.109,0.037l-0.079,0.031l-0.087,0.039l-0.098,0.049
			l-0.065,0.039l-0.11,0.068l-0.02,0.013l-0.036,0.026l-0.103,0.082l-0.062,0.055l-0.079,0.076l-0.071,0.076l-0.058,0.067
			l-0.074,0.099l-0.03,0.039c-1.169,1.734-3.123,2.771-5.228,2.771c-1.936,0-3.85-1.055-5.12-2.82l-0.027-0.034l-0.082-0.104
			l-0.055-0.06l-0.078-0.078l-0.078-0.071l-0.066-0.055l-0.102-0.077l-0.039-0.026l-0.021-0.013l-0.11-0.065l-0.068-0.036
			l-0.099-0.045l-0.087-0.038l-0.082-0.027l-0.108-0.035l-0.069-0.017l-0.121-0.026l-0.071-0.01l-0.121-0.014l-0.087-0.004
			l-0.102-0.001l-0.112,0.005l-0.078,0.006l-0.126,0.019l-0.062,0.011l-0.127,0.031l-0.062,0.018l-0.112,0.037l-0.077,0.03
			l-0.089,0.042l-0.095,0.047l-0.068,0.041l-0.107,0.065l-0.021,0.014l-0.038,0.03l-0.101,0.076l-0.063,0.057l-0.078,0.076
			l-0.072,0.076l-0.057,0.066l-0.074,0.1l-0.029,0.039c-1.167,1.734-3.124,2.771-5.228,2.771c-1.937,0-3.85-1.055-5.12-2.82
			c-0.393-0.546-1.014-0.838-1.645-0.838c-0.404,0-0.811,0.119-1.165,0.367c-0.908,0.636-1.123,1.877-0.478,2.773
			c2.024,2.814,5.167,4.494,8.407,4.494c2.599,0,5.057-0.96,6.932-2.646c1.897,1.685,4.289,2.646,6.737,2.646
			c2.599,0,5.057-0.96,6.932-2.646c1.897,1.685,4.289,2.646,6.737,2.646c3.459,0,6.668-1.698,8.586-4.544
			C86.031,31.151,85.779,29.917,84.853,29.31z M49.491,22.022c2.599,0,5.057-0.96,6.932-2.646c1.897,1.685,4.289,2.646,6.737,2.646
			c2.599,0,5.057-0.96,6.932-2.646c1.897,1.685,4.289,2.646,6.737,2.646c3.458,0,6.668-1.699,8.586-4.546
			c0.616-0.914,0.364-2.148-0.562-2.756c-0.344-0.226-0.731-0.333-1.115-0.333c-0.652,0-1.292,0.311-1.68,0.888
			c-1.169,1.732-3.123,2.769-5.229,2.769c-1.935,0-3.849-1.054-5.119-2.819l-0.028-0.035l-0.081-0.101l-0.056-0.062l-0.077-0.076
			l-0.079-0.072l-0.066-0.056l-0.102-0.074l-0.039-0.027l-0.022-0.013l-0.111-0.065l-0.066-0.036l-0.102-0.049l-0.084-0.034
			l-0.086-0.028l-0.104-0.034l-0.073-0.018l-0.117-0.024l-0.074-0.011l-0.117-0.015l-0.09-0.003l-0.1-0.003l-0.111,0.006
			L69.847,14.4l-0.125,0.019l-0.064,0.011l-0.124,0.031l-0.065,0.018l-0.109,0.037l-0.079,0.029l-0.087,0.041l-0.096,0.049
			l-0.067,0.039l-0.11,0.066l-0.02,0.013l-0.037,0.03l-0.101,0.078l-0.063,0.056l-0.079,0.075l-0.072,0.078l-0.056,0.065
			l-0.075,0.102l-0.03,0.038c-1.169,1.732-3.123,2.769-5.228,2.769c-1.936,0-3.85-1.054-5.12-2.819l-0.029-0.035l-0.08-0.101
			l-0.056-0.062L57.8,14.95l-0.08-0.072l-0.066-0.056l-0.102-0.074l-0.039-0.027l-0.021-0.013l-0.111-0.065l-0.065-0.036
			l-0.103-0.049l-0.084-0.034l-0.086-0.028l-0.104-0.034l-0.075-0.018l-0.116-0.024l-0.076-0.011l-0.115-0.015l-0.091-0.003
			l-0.1-0.003l-0.111,0.006L56.177,14.4l-0.124,0.019l-0.065,0.011l-0.123,0.029l-0.067,0.02l-0.107,0.037l-0.082,0.029
			l-0.085,0.041l-0.099,0.049l-0.065,0.037l-0.111,0.07l-0.02,0.011l-0.036,0.028l-0.104,0.081l-0.062,0.054l-0.08,0.078
			l-0.072,0.076l-0.056,0.065l-0.076,0.102l-0.028,0.038c-1.168,1.732-3.124,2.769-5.228,2.769c-1.937,0-3.85-1.054-5.12-2.819
			c-0.393-0.547-1.014-0.837-1.645-0.837c-0.404,0-0.811,0.118-1.165,0.365c-0.908,0.636-1.123,1.878-0.478,2.773
			C43.108,20.341,46.251,22.022,49.491,22.022z M84.853,43.9c-0.344-0.226-0.731-0.333-1.115-0.333
			c-0.652,0-1.292,0.311-1.681,0.888c-1.168,1.734-3.122,2.769-5.228,2.769c-1.935,0-3.849-1.053-5.119-2.818l-0.026-0.031
			L71.6,44.268l-0.052-0.058l-0.08-0.082l-0.077-0.068l-0.07-0.058l-0.098-0.072L71.183,43.9l-0.023-0.015l-0.105-0.061
			l-0.073-0.041l-0.092-0.042l-0.094-0.04l-0.073-0.025l-0.117-0.036l-0.059-0.014l-0.132-0.03l-0.057-0.008l-0.133-0.016
			l-0.072-0.003l-0.117-0.001l-0.096,0.004l-0.093,0.007l-0.113,0.017l-0.076,0.013l-0.114,0.028l-0.076,0.021l-0.1,0.036
			l-0.087,0.032l-0.08,0.038l-0.105,0.051l-0.06,0.035l-0.115,0.071L68.9,43.935l-0.033,0.026l-0.106,0.081l-0.061,0.054
			l-0.081,0.078l-0.069,0.075l-0.059,0.068l-0.074,0.097l-0.03,0.041c-1.169,1.734-3.123,2.769-5.228,2.769
			c-1.936,0-3.85-1.053-5.12-2.818l-0.025-0.031l-0.084-0.106l-0.054-0.058l-0.08-0.082l-0.076-0.068l-0.07-0.058l-0.098-0.072
			L57.513,43.9l-0.023-0.015l-0.104-0.061l-0.073-0.041l-0.092-0.042l-0.095-0.04l-0.073-0.023l-0.117-0.038l-0.058-0.014
			l-0.132-0.03l-0.058-0.008l-0.133-0.016l-0.072-0.003l-0.118-0.001l-0.097,0.004l-0.093,0.007l-0.114,0.017l-0.074,0.013
			l-0.117,0.03l-0.073,0.019l-0.102,0.036l-0.086,0.032l-0.082,0.038l-0.102,0.051l-0.062,0.036l-0.113,0.07l-0.02,0.013
			l-0.035,0.026l-0.104,0.081l-0.06,0.054l-0.081,0.078l-0.07,0.075l-0.059,0.068l-0.073,0.097l-0.03,0.041
			c-1.167,1.734-3.124,2.769-5.228,2.769c-1.937,0-3.85-1.053-5.12-2.818c-0.393-0.546-1.014-0.838-1.645-0.838
			c-0.403,0-0.811,0.119-1.165,0.367c-0.908,0.636-1.123,1.877-0.478,2.771c2.024,2.816,5.167,4.496,8.407,4.496
			c2.599,0,5.057-0.96,6.932-2.645c1.897,1.685,4.289,2.645,6.737,2.645c2.599,0,5.057-0.96,6.932-2.645
			c1.897,1.685,4.289,2.645,6.737,2.645c3.459,0,6.668-1.699,8.586-4.544C86.031,45.742,85.779,44.508,84.853,43.9z"/>
	</g>
</g>
</svg>
