<?xml version="1.0" encoding="utf-8"?>
<!-- Generator: Adobe Illustrator 16.0.0, SVG Export Plug-In . SVG Version: 6.00 Build 0)  -->
<!DOCTYPE svg PUBLIC "-//W3C//DTD SVG 1.1//EN" "http://www.w3.org/Graphics/SVG/1.1/DTD/svg11.dtd">
<svg version="1.1" id="Layer_1" xmlns="http://www.w3.org/2000/svg" xmlns:xlink="http://www.w3.org/1999/xlink" x="0px" y="0px"
	 width="48.513px" height="81.682px" viewBox="0 0 48.513 81.682" enable-background="new 0 0 48.513 81.682" xml:space="preserve">
<g>
	<g>
		<path fill="#F47921" d="M24.215,34.839H3.588C1.601,34.839,0,36.468,0,38.483v39.331v0.222c0,2.017,1.61,3.646,3.614,3.646h20.628
			c1.987,0,3.587-1.629,3.587-3.646v-39.33v-0.223C27.829,36.468,26.22,34.839,24.215,34.839z"/>
		<path fill="#F47921" d="M26.683,28.212H9.663c0.253-0.357,0.402-0.796,0.402-1.27c0-0.279-0.066-0.571-0.176-0.831L7.86,20.376
			c-0.551-1.385-1.92-2.371-3.492-2.371c-2.11,0-3.82,1.742-3.82,3.867c0,0.969,0.342,1.821,0.908,2.51l4.579,3.83H1.157
			c-0.637,0-1.134,0.527-1.134,1.159v1.799c0,0.643,0.497,1.163,1.134,1.163h25.525c0.624,0,1.146-0.521,1.146-1.163v-1.799
			C27.829,28.739,27.307,28.212,26.683,28.212z M6.324,25.833c-0.283,0-0.563-0.111-0.763-0.291l-2.555-2.379
			c-0.32-0.322-0.524-0.781-0.524-1.291c0-1.055,0.847-1.885,1.89-1.885c0.713,0,1.371,0.411,1.672,1.031l1.312,3.068
			c0.075,0.18,0.142,0.376,0.142,0.574C7.497,25.305,6.972,25.833,6.324,25.833z"/>
	</g>
</g>
<g>
	<g>
		<g>
			<path fill="#00B6DD" d="M47.577,23.333l-2.659-1.543l1.813-1.046c0.716-0.413,0.961-1.33,0.547-2.046
				c-0.412-0.716-1.327-0.96-2.044-0.548l-3.304,1.907l-2.726-1.582v-0.158h1.363c0.826,0,1.497-0.67,1.497-1.497
				c0-0.826-0.671-1.497-1.497-1.497h-1.363v-0.013l2.279-1.31l3.419,1.975c0.236,0.136,0.493,0.2,0.747,0.2
				c0.517,0,1.021-0.269,1.298-0.749c0.413-0.716,0.168-1.632-0.549-2.044l-1.913-1.105l3.275-1.882
				c0.717-0.411,0.964-1.327,0.552-2.044s-1.326-0.964-2.044-0.553l-3.164,1.819V7.676c0-0.827-0.671-1.497-1.497-1.497
				c-0.827,0-1.497,0.67-1.497,1.497v3.662l-2.34,1.343l0.636-1.1c0.413-0.717,0.168-1.632-0.548-2.045
				c-0.716-0.414-1.632-0.168-2.046,0.548l-0.681,1.179l-0.12-0.069l0.005-2.454l3.419-1.975c0.716-0.412,0.961-1.329,0.548-2.045
				s-1.328-0.96-2.046-0.548l-1.913,1.105L35.033,1.5c0.002-0.826-0.667-1.499-1.494-1.5c-0.001,0-0.002,0-0.003,0
				c-0.826,0-1.495,0.668-1.497,1.493l-0.008,3.649L30.35,4.172c-0.717-0.413-1.631-0.168-2.045,0.548s-0.168,1.632,0.548,2.045
				l3.172,1.831l-0.006,2.399l-0.525-0.911c-0.414-0.716-1.329-0.962-2.045-0.548c-0.717,0.413-0.962,1.328-0.549,2.045l0.682,1.18
				l-0.113,0.065l-2.209-1.281V7.598c0-0.827-0.67-1.497-1.497-1.497c-0.826,0-1.497,0.67-1.497,1.497v2.21l-3.267-1.896
				c-0.716-0.415-1.632-0.171-2.046,0.543c-0.415,0.716-0.172,1.632,0.543,2.047l3.157,1.831l-1.682,0.972
				c-0.717,0.412-0.962,1.328-0.548,2.045c0.277,0.479,0.779,0.748,1.297,0.748c0.254,0,0.512-0.064,0.748-0.2l3.171-1.831
				l2.167,1.257h-1.066c-0.827,0-1.497,0.671-1.497,1.497c0,0.827,0.67,1.497,1.497,1.497h1.222l-2.689,1.546l-3.287-1.897
				c-0.717-0.413-1.632-0.168-2.046,0.548c-0.412,0.716-0.168,1.632,0.548,2.045l1.782,1.029l-2.643,1.519
				c-0.718,0.412-0.965,1.327-0.553,2.044c0.276,0.481,0.781,0.751,1.3,0.751c0.253,0,0.509-0.064,0.744-0.199l2.665-1.53v2.095
				c0,0.825,0.67,1.496,1.496,1.496c0.828,0,1.498-0.671,1.498-1.496v-3.815l2.771-1.592l0.034,0.02l-0.683,1.182
				c-0.413,0.716-0.168,1.632,0.549,2.045c0.235,0.136,0.492,0.201,0.746,0.201c0.518,0,1.021-0.269,1.299-0.749l0.5-0.868
				l-0.006,3.021L28.7,27.608c-0.716,0.414-0.961,1.33-0.548,2.046c0.277,0.48,0.78,0.748,1.298,0.748
				c0.255,0,0.512-0.063,0.747-0.201l1.782-1.028l-0.007,3.049c-0.001,0.827,0.667,1.499,1.494,1.5c0.001,0,0.002,0,0.003,0
				c0.826,0,1.496-0.668,1.498-1.493l0.006-3.073l1.813,1.046c0.716,0.414,1.632,0.169,2.045-0.547
				c0.414-0.717,0.168-1.632-0.548-2.046l-3.303-1.907l0.007-3.242l0.145-0.082l0.681,1.181c0.278,0.48,0.781,0.749,1.298,0.749
				c0.255,0,0.512-0.065,0.748-0.201c0.716-0.413,0.961-1.329,0.548-2.045l-0.509-0.881l2.544,1.476v3.795
				c0,0.827,0.67,1.497,1.497,1.497c0.826,0,1.497-0.67,1.497-1.497v-2.058l2.637,1.529c0.236,0.138,0.496,0.203,0.75,0.203
				c0.517,0,1.019-0.268,1.297-0.746C48.534,24.664,48.292,23.748,47.577,23.333z M33.653,18.878c-1.175,0-2.129-0.953-2.129-2.13
				c0-1.176,0.954-2.129,2.129-2.129c1.177,0,2.131,0.953,2.131,2.129C35.784,17.925,34.83,18.878,33.653,18.878z"/>
		</g>
	</g>
</g>
</svg>
