<?xml version="1.0" encoding="utf-8"?>
<!-- Generator: Adobe Illustrator 16.0.0, SVG Export Plug-In . SVG Version: 6.00 Build 0)  -->
<!DOCTYPE svg PUBLIC "-//W3C//DTD SVG 1.1//EN" "http://www.w3.org/Graphics/SVG/1.1/DTD/svg11.dtd">
<svg version="1.1" id="Layer_1" xmlns="http://www.w3.org/2000/svg" xmlns:xlink="http://www.w3.org/1999/xlink" x="0px" y="0px"
	 width="68.003px" height="65.201px" viewBox="0 0 68.003 65.201" enable-background="new 0 0 68.003 65.201" xml:space="preserve">
<g>
	<g>
		<path fill="#EF7925" d="M57.951,50.04c1.384-1.845,2.367-3.998,1.969-6.055l3.136-2.19c0.529,0.753,1.373,1.158,2.229,1.158
			c0.539,0,1.083-0.16,1.558-0.492c1.231-0.859,1.53-2.554,0.671-3.781c-0.471-0.669-1.185-1.051-1.941-1.133
			c0.184-0.734,0.069-1.537-0.399-2.207c-0.528-0.754-1.374-1.157-2.231-1.157c-0.539,0-1.083,0.159-1.558,0.489
			c-1.231,0.863-1.53,2.556-0.667,3.782l-3.14,2.194c-0.911-0.547-1.967-0.77-3.075-0.77c-1.881,0-3.91,0.643-5.633,1.437
			c0.182-0.768,0.224-1.541,0.075-2.301l3.138-2.193c0.528,0.757,1.373,1.161,2.231,1.161c0.537,0,1.083-0.16,1.556-0.493
			c1.233-0.86,1.531-2.552,0.669-3.78c-0.469-0.669-1.183-1.052-1.936-1.131c0.178-0.736,0.065-1.539-0.403-2.207
			c-0.528-0.754-1.372-1.159-2.229-1.159c-0.539,0-1.083,0.159-1.558,0.492c-1.233,0.859-1.53,2.552-0.669,3.781l-3.138,2.19
			c-0.912-0.546-1.971-0.769-3.078-0.769c-2.9-0.001-6.151,1.524-8.081,2.78c-0.471-0.111-0.94-0.327-1.444-0.327
			c-19.287,0-23.168,10.333-23.9,17.202h48.837C58.792,52.907,58.493,51.082,57.951,50.04z M66.644,57.345H1.36
			c-0.751,0-1.36,0.608-1.36,1.358c0,0.748,0.609,1.357,1.36,1.357c2.104,0,3.603,2.39,4.081,3.781
			c0.139,0.411,0.68,1.359,2.04,1.359h53.043c1.36,0,1.899-0.948,2.039-1.359c0.478-1.392,1.977-3.781,4.081-3.781
			c0.75,0,1.359-0.609,1.359-1.357C68.003,57.953,67.394,57.345,66.644,57.345z"/>
	</g>
</g>
<path fill="#02B6DD" d="M23.579,0c-0.486,0-0.417,0.338-0.019,0.843c0.118,0.129,0.23,0.258,0.337,0.387v0.003
	c5.952,7.298-5.956,17.452-8.93,22.947c-4.274,7.898-2.78,14.967,2.841,18.606c0.543,0.338,0.955,0.494,1.258,0.494
	c0.576,0,0.756-0.571,0.7-1.544l-0.003-0.131c-0.127-2.157,0.355-4.906,2.433-7.927c0.177-0.25,0.311-0.42,0.407-0.42
	c0.108,0,0.174,0.202,0.211,0.725v0.006c0.133,2.984,1.101,10.817,7.596,10.817c0.487,0,1.005-0.044,1.557-0.138
	c4.089-0.878,8.345-4.864,8.298-9.908c-0.056-5.964-7.79-13.229-4.412-18.623c0.04-0.068,0.089-0.142,0.146-0.225l0.039-0.055
	c0.781-1.067,0.672-1.391,0.255-1.391s-1.144,0.323-1.596,0.552l-0.045,0.024c-2.561,1.447-4.312,3.802-4.82,6.701
	c-0.014,0.064-0.028,0.135-0.041,0.216c-0.071,0.473-0.217,0.762-0.34,0.762c-0.141,0-0.255-0.369-0.208-1.256
	c0.264-3.369,2.19-6.267,2.521-9.969c0.409-4.592-2.836-9.887-7.317-11.324l-0.005-0.002l-0.158-0.046l-0.082-0.022
	C23.935,0.033,23.728,0,23.579,0"/>
</svg>
