<svg width="32" height="31" viewBox="0 0 32 31" fill="none" xmlns="http://www.w3.org/2000/svg">
<path d="M24.287 4.48936C24.3006 4.49044 24.3144 4.49147 24.3284 4.49147C24.3522 4.49128 24.3758 4.48946 24.3993 4.48602C24.6987 4.49219 24.9838 4.61534 25.1935 4.82911C25.4032 5.04288 25.5209 5.33027 25.5213 5.62973C25.5213 5.76565 25.5753 5.896 25.6714 5.9921C25.7675 6.08821 25.8979 6.1422 26.0338 6.1422C26.1697 6.1422 26.3001 6.08821 26.3962 5.9921C26.4923 5.896 26.5463 5.76565 26.5463 5.62973C26.5456 5.13515 26.3762 4.65561 26.0661 4.27029C25.7561 3.88498 25.3239 3.61695 24.8409 3.51047V3.01812C24.8409 2.8822 24.7869 2.75185 24.6908 2.65575C24.5947 2.55964 24.4643 2.50565 24.3284 2.50565C24.1925 2.50565 24.0622 2.55964 23.9661 2.65575C23.8699 2.75185 23.816 2.8822 23.816 3.01812V3.53373C23.3073 3.66975 22.8656 3.98606 22.5729 4.4237C22.2802 4.86135 22.1567 5.39047 22.2253 5.91246C22.2939 6.43445 22.5499 6.9137 22.9457 7.26089C23.3415 7.60807 23.85 7.79952 24.3765 7.79953C24.6029 7.79953 24.8242 7.86668 25.0125 7.99247C25.2008 8.11827 25.3475 8.29708 25.4342 8.50627C25.5208 8.71547 25.5435 8.94566 25.4993 9.16774C25.4552 9.38982 25.3461 9.59382 25.186 9.75393C25.0259 9.91404 24.8219 10.0231 24.5998 10.0673C24.3777 10.1114 24.1475 10.0888 23.9383 10.0021C23.7292 9.91545 23.5503 9.76871 23.4246 9.58044C23.2988 9.39217 23.2316 9.17082 23.2316 8.94439C23.2316 8.80848 23.1776 8.67813 23.0815 8.58202C22.9854 8.48591 22.8551 8.43192 22.7191 8.43192C22.5832 8.43192 22.4529 8.48591 22.3568 8.58202C22.2607 8.67813 22.2067 8.80848 22.2067 8.94439C22.2073 9.42204 22.3653 9.88618 22.6562 10.265C22.9471 10.6439 23.3547 10.9164 23.816 11.0404V11.602C23.816 11.7379 23.8699 11.8683 23.9661 11.9644C24.0622 12.0605 24.1925 12.1145 24.3284 12.1145C24.4643 12.1145 24.5947 12.0605 24.6908 11.9644C24.7869 11.8683 24.8409 11.7379 24.8409 11.602V11.0639C25.3635 10.9495 25.8255 10.6459 26.1379 10.2116C26.4504 9.77732 26.5914 9.24287 26.5338 8.71095C26.4762 8.17903 26.2241 7.68715 25.8259 7.3298C25.4277 6.97245 24.9115 6.77483 24.3765 6.77491C24.0806 6.77511 23.7962 6.66071 23.5828 6.45572C23.3695 6.25073 23.2438 5.97107 23.2322 5.67544C23.2206 5.3798 23.324 5.09116 23.5206 4.87008C23.7172 4.649 23.9918 4.51266 24.2868 4.48968L24.287 4.48936Z" fill="white"/>
<path d="M24.4057 0C21.253 0 18.5625 2.05725 17.5546 4.81178H4.83524C4.55338 4.81178 4.32469 5.06558 4.32277 5.34725L4.20164 23.3248H0.575972C0.29296 23.3248 0.0500488 23.5298 0.0500488 23.813V26.0945C0.0531415 27.1285 0.45404 28.1217 1.16963 28.8681C1.88522 29.6145 2.86061 30.0569 3.89358 30.1036V30.115H19.7161V30.1C19.8442 30.1047 19.8971 30.115 19.978 30.115H19.9892C21.0556 30.1133 22.0778 29.6884 22.8313 28.9338C23.5848 28.1791 24.008 27.1562 24.008 26.0898V14.5551C24.1362 14.5622 24.2718 14.566 24.4043 14.566C28.4163 14.566 31.681 11.2948 31.681 7.28285C31.681 3.27091 28.4177 0 24.4057 0ZM4.08851 29.0901H4.08531C3.2889 29.089 2.52529 28.7728 1.96125 28.2106C1.39721 27.6483 1.07859 26.8857 1.07499 26.0893V24.3497H15.9366V26.082C15.937 26.6116 16.042 27.1358 16.2457 27.6247C16.4493 28.1135 16.7475 28.5573 17.1232 28.9306C17.177 28.9844 17.2439 29.026 17.3001 29.0901H4.08851ZM22.9831 26.0893C22.9832 26.8841 22.6679 27.6464 22.1065 28.209C21.5451 28.7716 20.7834 29.0885 19.9886 29.0901H19.9788C19.1807 29.0886 18.4155 28.7716 17.8503 28.2081C17.2851 27.6447 16.9656 26.8806 16.9616 26.0825V23.813C16.9637 23.7483 16.9525 23.6837 16.9287 23.6234C16.9048 23.5632 16.8688 23.5084 16.823 23.4627C16.7771 23.4169 16.7223 23.381 16.662 23.3573C16.6016 23.3336 16.5371 23.3225 16.4723 23.3248H5.22658L5.34425 5.83672H17.2702C17.1793 6.30576 17.1322 6.78227 17.1298 7.26004C17.1287 8.2701 17.3394 9.26918 17.7484 10.1927H12.9077C12.7718 10.1927 12.6415 10.2467 12.5454 10.3428C12.4493 10.4389 12.3953 10.5693 12.3953 10.7052C12.3953 10.8411 12.4493 10.9715 12.5454 11.0676C12.6415 11.1637 12.7718 11.2177 12.9077 11.2177H18.3043C18.8275 12.0404 19.5118 12.7488 20.3158 13.3003C21.1199 13.8518 22.0272 14.2351 22.9831 14.427V26.0893ZM24.4057 13.5413C23.1694 13.5413 21.9608 13.1746 20.9329 12.4878C19.9049 11.8009 19.1037 10.8246 18.6306 9.68238C18.1575 8.54016 18.0337 7.2833 18.2749 6.07073C18.5161 4.85816 19.1115 3.74435 19.9857 2.87014C20.8599 1.99593 21.9737 1.40059 23.1863 1.1594C24.3989 0.918206 25.6557 1.042 26.798 1.51512C27.9402 1.98825 28.9164 2.78945 29.6033 3.81742C30.2902 4.84539 30.6568 6.05395 30.6568 7.29028C30.6549 8.94758 29.9957 10.5365 28.8238 11.7084C27.6519 12.8802 26.063 13.5394 24.4057 13.5413Z" fill="white"/>
<path d="M9.61838 13.6032C8.71387 13.6032 7.97803 14.3156 7.97803 15.1914C7.97803 16.0671 8.71387 16.7797 9.61838 16.7797C10.5229 16.7797 11.2588 16.0672 11.2588 15.1914C11.2588 14.3156 10.5229 13.6032 9.61838 13.6032ZM9.61838 15.7547C9.27887 15.7547 9.00297 15.502 9.00297 15.1914C9.00297 14.8808 9.279 14.6281 9.61838 14.6281C9.95777 14.6281 10.2339 14.8808 10.2339 15.1914C10.2339 15.5019 9.95777 15.7547 9.61838 15.7547Z" fill="white"/>
<path d="M12.3954 15.1893C12.3954 15.3252 12.4494 15.4556 12.5455 15.5517C12.6416 15.6478 12.7719 15.7018 12.9079 15.7018H19.7402C19.8762 15.7018 20.0065 15.6478 20.1026 15.5517C20.1987 15.4556 20.2527 15.3252 20.2527 15.1893C20.2527 15.0534 20.1987 14.923 20.1026 14.8269C20.0065 14.7308 19.8762 14.6768 19.7402 14.6768H12.9079C12.7719 14.6768 12.6416 14.7308 12.5455 14.8269C12.4494 14.923 12.3954 15.0534 12.3954 15.1893Z" fill="white"/>
<path d="M9.61838 9.14853C8.71387 9.14853 7.97803 9.86099 7.97803 10.7368C7.97803 11.6126 8.71387 12.325 9.61838 12.325C10.5229 12.325 11.2588 11.6126 11.2588 10.7368C11.2588 9.86106 10.5229 9.14853 9.61838 9.14853ZM9.61838 11.3001C9.27887 11.3001 9.00297 11.0474 9.00297 10.7368C9.00297 10.4262 9.279 10.1735 9.61838 10.1735C9.95777 10.1735 10.2339 10.4262 10.2339 10.7368C10.2339 11.0474 9.95777 11.3003 9.61838 11.3003V11.3001Z" fill="white"/>
<path d="M9.61838 18.0576C8.71387 18.0576 7.97803 18.7701 7.97803 19.6459C7.97803 20.5216 8.71387 21.2341 9.61838 21.2341C10.5229 21.2341 11.2588 20.5217 11.2588 19.6459C11.2588 18.77 10.5229 18.0576 9.61838 18.0576ZM9.61838 20.2092C9.27887 20.2092 9.00297 19.9565 9.00297 19.6459C9.00297 19.3352 9.279 19.0826 9.61838 19.0826C9.95777 19.0826 10.2339 19.3353 10.2339 19.6459C10.2339 19.9564 9.95777 20.2092 9.61838 20.2092Z" fill="white"/>
<path d="M19.7402 19.1609H12.9079C12.7719 19.1609 12.6416 19.2149 12.5455 19.311C12.4494 19.4072 12.3954 19.5375 12.3954 19.6734C12.3954 19.8093 12.4494 19.9397 12.5455 20.0358C12.6416 20.1319 12.7719 20.1859 12.9079 20.1859H19.7402C19.8762 20.1859 20.0065 20.1319 20.1026 20.0358C20.1987 19.9397 20.2527 19.8093 20.2527 19.6734C20.2527 19.5375 20.1987 19.4072 20.1026 19.311C20.0065 19.2149 19.8762 19.1609 19.7402 19.1609Z" fill="white"/>
</svg>
