<svg width="25" height="28" viewBox="0 0 25 28" fill="none" xmlns="http://www.w3.org/2000/svg">
<path d="M24.3134 5.60228H24.3201L12.5604 0.0464614C12.4922 0.0158371 12.4182 0 12.3433 0C12.2685 0 12.1945 0.0158371 12.1263 0.0464614L0.584781 5.52351C0.493615 5.55211 0.409304 5.59901 0.337052 5.6613C0.2648 5.7236 0.206138 5.79996 0.164687 5.8857L0.0552259 6.19268C0.0195032 6.31746 0.000845091 6.44647 -0.000244141 6.57622V21.4636C0.000620991 21.6589 0.0565297 21.8501 0.161126 22.0154C0.265722 22.1807 0.41481 22.3134 0.591437 22.3985L11.485 27.6187L11.698 27.721L11.9199 27.8233C12.1078 27.9153 12.2157 27.9845 12.5005 28C12.7912 27.9838 12.8836 27.9617 13.0922 27.8344L13.2985 27.7217L13.5145 27.6187L24.4081 22.3993C24.5848 22.3142 24.7339 22.1815 24.8385 22.0162C24.9431 21.8509 24.999 21.6597 24.9998 21.4644V6.57327C24.9988 6.36098 24.9325 6.15408 24.8098 5.98046C24.6871 5.80684 24.5138 5.67484 24.3134 5.60228ZM12.3385 1.06973L22.599 6.06679L18.4033 8.07799L8.36243 3.01319L12.3385 1.06973ZM11.9414 26.683C11.9414 26.684 11.9412 26.6849 11.9408 26.6858C11.9404 26.6867 11.9399 26.6875 11.9392 26.6882C11.9385 26.6889 11.9377 26.6894 11.9368 26.6898C11.9359 26.6902 11.9349 26.6904 11.934 26.6904L1.04038 21.471C1.03908 21.4704 1.03796 21.4695 1.03718 21.4683C1.03639 21.4671 1.03596 21.4658 1.03594 21.4644V6.80516L11.9443 11.9333L11.9414 26.683ZM12.4931 10.9174C12.4588 10.8954 12.4233 10.8755 12.3866 10.8577L2.2474 5.99907L7.19608 3.58151L17.2258 8.64041L12.5996 10.857C12.5639 10.8751 12.5294 10.8952 12.4961 10.9174H12.4931ZM23.9569 21.4629C23.9569 21.4643 23.9565 21.4657 23.9557 21.4668C23.9549 21.468 23.9538 21.4689 23.9525 21.4695L13.0589 26.6889C13.0579 26.6889 13.057 26.6887 13.0561 26.6883C13.0552 26.688 13.0544 26.6874 13.0537 26.6867C13.053 26.6861 13.0524 26.6852 13.0521 26.6844C13.0517 26.6835 13.0515 26.6825 13.0515 26.6815V11.8979L18.3086 9.3751V14.2721C18.3086 14.4087 18.3631 14.5398 18.4602 14.6364C18.5573 14.7331 18.689 14.7874 18.8263 14.7874C18.9636 14.7874 19.0953 14.7331 19.1924 14.6364C19.2895 14.5398 19.344 14.4087 19.344 14.2721V9.0453C19.3439 8.99259 19.3357 8.9402 19.3196 8.88997L23.9591 6.66308L23.9569 21.4629Z" fill="white"/>
</svg>
