<svg width="16" height="17" viewBox="0 0 16 17" fill="none" xmlns="http://www.w3.org/2000/svg">
<path d="M13.1152 15.4029C13.6464 15.9342 14.5078 15.9342 15.0391 15.4029C15.57 14.872 15.5704 14.0115 15.0401 13.48L9.75408 8.18244L15.0401 2.88484C15.5704 2.3534 15.57 1.49284 15.0391 0.961976C14.5078 0.430701 13.6464 0.430701 13.1152 0.961976L5.89471 8.18244L13.1152 15.4029Z" fill="#736C6B"/>
<path d="M2.88471 0.96196C2.35343 0.430685 1.49206 0.430684 0.960788 0.961959C0.429923 1.49282 0.429453 2.35338 0.959739 2.88483L6.24579 8.18243L0.959737 13.48C0.429451 14.0115 0.42992 14.872 0.960786 15.4029C1.49206 15.9342 2.35343 15.9342 2.8847 15.4029L10.1052 8.18243L2.88471 0.96196Z" fill="#736C6B"/>
</svg>
