<svg width="25" height="30" viewBox="0 0 25 30" fill="none" xmlns="http://www.w3.org/2000/svg">
<path d="M24.651 4.19584L12.6719 0.0291766C12.5606 -0.00972553 12.4394 -0.00972553 12.3281 0.0291766L0.348958 4.19584C0.247323 4.23137 0.159196 4.29753 0.0967051 4.3852C0.0342136 4.47287 0.00042891 4.57776 0 4.68543V14.5813C0 24.7323 12.2031 29.0917 12.3281 29.1333C12.4394 29.1722 12.5606 29.1722 12.6719 29.1333C12.7969 29.0917 25 24.7323 25 14.5813V4.68543C24.9996 4.57776 24.9658 4.47287 24.9033 4.3852C24.8408 4.29753 24.7527 4.23137 24.651 4.19584ZM23.9583 14.5813C23.9583 23.3521 13.9427 27.5344 12.5 28.0865C11.0573 27.5344 1.04167 23.3521 1.04167 14.5813V5.05522L12.5 1.07084L23.9583 5.05522V14.5813Z" fill="white"/>
<path d="M12.3437 2.60211L2.44789 5.72711C2.33815 5.7615 2.24287 5.83123 2.17691 5.92545C2.11096 6.01967 2.07805 6.13306 2.08331 6.24795V14.5813C2.08331 22.6646 11.901 26.3729 12.3177 26.5292C12.4337 26.5718 12.5611 26.5718 12.6771 26.5292C13.0989 26.3729 22.9166 22.6646 22.9166 14.5813V6.24795C22.9219 6.13306 22.889 6.01967 22.823 5.92545C22.7571 5.83123 22.6618 5.7615 22.5521 5.72711L12.6562 2.60211C12.5545 2.57013 12.4454 2.57013 12.3437 2.60211ZM21.875 6.62816V14.5813C21.875 21.3521 13.8177 24.9407 12.5 25.4771C11.1823 24.9407 3.12498 21.3521 3.12498 14.5813V6.62816L12.5 3.64378L21.875 6.62816Z" fill="white"/>
<path d="M15.788 17.448C15.7 17.512 15.576 17.588 15.416 17.676C15.264 17.764 15.068 17.848 14.828 17.928C14.596 18.008 14.32 18.076 14 18.132C13.68 18.188 13.316 18.216 12.908 18.216C12.316 18.216 11.756 18.124 11.228 17.94C10.7 17.748 10.232 17.472 9.824 17.112C9.424 16.752 9.104 16.304 8.864 15.768C8.632 15.232 8.516 14.616 8.516 13.92C8.516 13.232 8.628 12.616 8.852 12.072C9.084 11.528 9.396 11.072 9.788 10.704C10.188 10.328 10.652 10.044 11.18 9.852C11.708 9.652 12.272 9.552 12.872 9.552C13.448 9.552 13.92 9.6 14.288 9.696C14.656 9.792 14.944 9.912 15.152 10.056C15.368 10.192 15.516 10.336 15.596 10.488C15.684 10.632 15.728 10.752 15.728 10.848C15.728 10.952 15.704 11.052 15.656 11.148C15.616 11.244 15.564 11.332 15.5 11.412C15.444 11.484 15.384 11.548 15.32 11.604C15.256 11.66 15.2 11.7 15.152 11.724C15.072 11.636 14.96 11.54 14.816 11.436C14.68 11.332 14.516 11.236 14.324 11.148C14.132 11.06 13.916 10.988 13.676 10.932C13.436 10.868 13.176 10.836 12.896 10.836C12.488 10.836 12.108 10.908 11.756 11.052C11.404 11.188 11.1 11.392 10.844 11.664C10.588 11.928 10.384 12.252 10.232 12.636C10.088 13.012 10.016 13.44 10.016 13.92C10.016 14.408 10.092 14.84 10.244 15.216C10.404 15.584 10.62 15.896 10.892 16.152C11.164 16.4 11.484 16.588 11.852 16.716C12.22 16.844 12.616 16.908 13.04 16.908C13.544 16.908 13.976 16.844 14.336 16.716C14.704 16.588 14.972 16.468 15.14 16.356L15.776 17.448H15.788Z" fill="white"/>
</svg>
