<svg xmlns="http://www.w3.org/2000/svg" width="40" height="40" viewBox="0 0 40 40"><defs><style>.a,.c{fill:none;}.b{fill:#464646;}.c{stroke:#fff;stroke-linecap:round;stroke-width:1.5px;}</style></defs><g transform="translate(2 -4)"><rect class="a" width="40" height="40" transform="translate(-2 4)"/><path class="b" d="M453.353,1201.267l-10.468-5.188a.762.762,0,0,0-.676,0l-10.469,5.188a.762.762,0,0,0-.423.682v12.088a.761.761,0,0,0,.423.682l10.469,5.188a.764.764,0,0,0,.676,0l10.468-5.188a.761.761,0,0,0,.423-.682V1201.95A.761.761,0,0,0,453.353,1201.267Zm-10.867,4.921-3.186-1.526,8.115-4.637L451.4,1202Zm.061-8.577,3.225,1.6-8.141,4.652-3.913-1.875Zm-9.707,5.643,8.881,4.256v10.457l-8.881-4.4Zm10.4,14.776v-10.516l9.01-4.229v10.28Z" transform="translate(-424.316 -1184)"/><line class="c" x2="4" y2="4" transform="translate(5.5 9.5)"/><line class="c" x2="4" y2="4" transform="translate(26.5 35.5)"/><line class="c" x1="4" y2="4" transform="translate(27.5 9.5)"/><line class="c" x1="4" y2="4" transform="translate(5.5 35.5)"/><line class="c" x2="5" transform="translate(-0.5 24.5)"/><line class="c" x2="5" transform="translate(31.5 24.5)"/></g></svg>