<svg xmlns="http://www.w3.org/2000/svg" width="64" height="64" viewBox="0 0 64 64"><defs><style>.a,.b,.c{fill:none;}.b{stroke:#707070;stroke-width:1.8px;}.b,.c{stroke-linecap:round;stroke-linejoin:round;stroke-miterlimit:10;}.c{stroke:#fff;stroke-width:2px;}</style></defs><g transform="translate(-190.1 -544.298)"><path class="a" d="M32,0A32,32,0,1,1,0,32,32,32,0,0,1,32,0Z" transform="translate(190.1 544.298)"/><g transform="translate(-1.614 -79.231)"><path class="b" d="M1.043,283l12.267,8.477a4.258,4.258,0,0,0,3.328.658l6.548-1.419a3.356,3.356,0,0,1,.715-.076H34.685v.552a3.788,3.788,0,0,1-3.76,3.814H26.661a2.561,2.561,0,0,0-1.934.886h0a2.639,2.639,0,0,0,.726,4.045l1.351.727a2.548,2.548,0,0,0,1.184.305l7.688.092,6.892-.99a4.34,4.34,0,0,1,4.88,3.6l.063.364-13.89,2.283-6.848-.1" transform="translate(199 360.521)"/><path class="b" d="M31.5,299.953l1.685-.277a3.935,3.935,0,0,1,4.491,3.192l.078.41-7.923,2.084" transform="translate(208.069 365.759)"/><path class="b" d="M30.349,308.385l6.162-1.687-.237-1.228a2.7,2.7,0,0,0-3.311-2.128l-2.616.676" transform="translate(208.233 366.904)"/><path class="b" d="M1.043,295.684l8.416,5.46,5.576,5.757" transform="translate(199 364.517)"/><path class="b" d="M26.653,311.919a2.467,2.467,0,0,1-2.132-2.75l.319-2.718a2.438,2.438,0,1,1,4.841.587l-.319,2.718a2.444,2.444,0,0,1-2.709,2.163Z" transform="translate(206.391 367.223)"/><path class="b" d="M22.941,311.6a2.467,2.467,0,0,1-2.132-2.75l.32-2.718a2.448,2.448,0,0,1,2.709-2.165h0a2.467,2.467,0,0,1,2.132,2.75l-.32,2.718a2.444,2.444,0,0,1-2.709,2.165Z" transform="translate(205.222 367.121)"/><path class="b" d="M19.229,311.283a2.467,2.467,0,0,1-2.132-2.75l.32-2.718a2.448,2.448,0,0,1,2.709-2.165h0a2.467,2.467,0,0,1,2.132,2.75l-.32,2.718a2.45,2.45,0,0,1-1.755,2.086,2.459,2.459,0,0,1-.954.079Z" transform="translate(204.052 367.022)"/><path class="b" d="M15.606,310.357a2.467,2.467,0,0,1-2.132-2.75l.32-2.718a2.448,2.448,0,0,1,2.709-2.165h0a2.467,2.467,0,0,1,2.132,2.75l-.32,2.718a2.448,2.448,0,0,1-2.709,2.165Z" transform="translate(202.911 366.73)"/><path class="b" d="M4.59,277.7l10.5,13.019" transform="translate(200.118 358.851)"/><path class="c" d="M43.807,298.914a4.213,4.213,0,0,0,.292-1.547,4.152,4.152,0,0,0-3.43-4.112V293a5.421,5.421,0,0,0-5.38-5.46,5.309,5.309,0,0,0-1.585.241,5.412,5.412,0,0,0-5.36-5.006,5.346,5.346,0,0,0-4.317,2.2,5.337,5.337,0,0,0-4-1.806,5.421,5.421,0,0,0-5.38,5.46" transform="translate(203.287 360.449)"/><path class="c" d="M34.413,284.234a2.367,2.367,0,1,0-2.333-2.367A2.35,2.35,0,0,0,34.413,284.234Z" transform="translate(208.779 359.418)"/><path class="c" d="M28.509,278.551a1.776,1.776,0,1,0-1.749-1.775A1.762,1.762,0,0,0,28.509,278.551Z" transform="translate(207.103 358)"/><path class="c" d="M22.8,286.744a5.557,5.557,0,0,0-1.076-2.383" transform="translate(205.515 360.949)"/></g></g></svg>