<svg xmlns="http://www.w3.org/2000/svg" width="64" height="64" viewBox="0 0 64 64"><defs><style>.a{fill:none;}.b{fill:#707070;stroke:#707070;stroke-width:0.5px;}.c{fill:#ade343;}</style></defs><g transform="translate(7.399 -62)"><circle class="a" cx="32" cy="32" r="32" transform="translate(-7.399 62)"/><path class="b" d="M.6,80.934v25.2A4.672,4.672,0,0,0,5.267,110.8H14.6a.948.948,0,0,1,.747.373l7.366,9.819a2.8,2.8,0,0,0,4.338-.038l7.336-9.781a.951.951,0,0,1,.747-.373h9.333a4.672,4.672,0,0,0,4.667-4.666v-25.2a4.672,4.672,0,0,0-4.667-4.667H38.351a14,14,0,0,0-26.98,0h-6.1A4.672,4.672,0,0,0,.6,80.934ZM24.28,67.882A12.133,12.133,0,0,1,37,80a11.993,11.993,0,0,1-3.844,8.845,11.853,11.853,0,0,0-3.622,8.673v1.148H20.2v-.991A12.208,12.208,0,0,0,16.526,88.8,12.122,12.122,0,0,1,24.28,67.882ZM27.667,105.2h-5.6a1.867,1.867,0,0,1-1.867-1.867v-2.8h9.333v2.8A1.867,1.867,0,0,1,27.667,105.2ZM2.467,80.934a2.8,2.8,0,0,1,2.8-2.8H11c-.026.2-.063.387-.079.585a13.933,13.933,0,0,0,4.318,11.433,10.336,10.336,0,0,1,3.09,7.523v5.658a3.734,3.734,0,0,0,2.8,3.6V108A.933.933,0,0,0,23,108v-.933h3.733V108a.933.933,0,0,0,1.867,0v-1.066a3.733,3.733,0,0,0,2.8-3.6V97.519a9.976,9.976,0,0,1,3.031-7.31A13.84,13.84,0,0,0,38.866,80a14.212,14.212,0,0,0-.137-1.867h5.737a2.8,2.8,0,0,1,2.8,2.8v25.2a2.8,2.8,0,0,1-2.8,2.8H35.133a2.827,2.827,0,0,0-2.24,1.12L25.587,119.8a1,1,0,0,1-1.411.038l-7.336-9.782a2.825,2.825,0,0,0-2.24-1.12H5.267a2.8,2.8,0,0,1-2.8-2.8Z" transform="translate(0 0)"/><path class="c" d="M15.717,83.267a.933.933,0,0,0-.933.933V87a.933.933,0,1,0,1.867,0V84.2A.933.933,0,0,0,15.717,83.267Z" transform="translate(7.283 8.867)"/><path class="c" d="M14.783,81.434a.933.933,0,1,0,1.867,0V80.5a.933.933,0,0,0-1.867,0Z" transform="translate(7.283 6.967)"/><path class="c" d="M18.182,87.933A.933.933,0,0,0,19.116,87V84.2a.933.933,0,1,0-1.867,0V87A.933.933,0,0,0,18.182,87.933Z" transform="translate(8.549 8.867)"/><path class="c" d="M18.182,82.367a.933.933,0,0,0,.933-.933V80.5a.933.933,0,0,0-1.867,0v.933A.933.933,0,0,0,18.182,82.367Z" transform="translate(8.549 6.967)"/><path class="c" d="M8.666,72.217a.933.933,0,0,0,.583-1.662L4.582,66.821a.934.934,0,0,0-1.167,1.458l4.667,3.733A.933.933,0,0,0,8.666,72.217Z" transform="translate(1.266 0.317)"/><path class="c" d="M27.4,72.013l4.666-3.733A.934.934,0,0,0,30.9,66.821l-4.666,3.733A.934.934,0,1,0,27.4,72.013Z" transform="translate(12.983 0.317)"/><path class="c" d="M3.27,89.75a.933.933,0,0,0,1.312.146l4.667-3.733A.934.934,0,1,0,8.082,84.7L3.416,88.438A.933.933,0,0,0,3.27,89.75Z" transform="translate(1.266 9.5)"/><path class="c" d="M30.9,89.9a.934.934,0,1,0,1.167-1.458L27.4,84.7a.934.934,0,1,0-1.167,1.458Z" transform="translate(12.983 9.5)"/><path class="c" d="M11.223,76.533a.916.916,0,0,0,.178.018.933.933,0,0,0,.915-.756,7.405,7.405,0,0,1,4.107-4.915.933.933,0,1,0-.712-1.726,9.165,9.165,0,0,0-5.227,6.286A.933.933,0,0,0,11.223,76.533Z" transform="translate(5.066 1.583)"/><path class="c" d="M4,77.733H6.8a.933.933,0,1,0,0-1.867H4a.933.933,0,1,0,0,1.867Z" transform="translate(1.266 5.067)"/><path class="c" d="M28.049,77.733h2.8a.933.933,0,0,0,0-1.867h-2.8a.933.933,0,1,0,0,1.867Z" transform="translate(13.616 5.067)"/></g></svg>