<svg xmlns="http://www.w3.org/2000/svg" width="64" height="64" viewBox="0 0 64 64"><defs><style>.a{fill:none;}.b,.c{fill:#707070;}.c{stroke:#fff;stroke-width:0.5px;}.d{fill:#9aca3c;}</style></defs><g transform="translate(-190.1 -544.298)"><path class="a" d="M32,0A32,32,0,1,1,0,32,32,32,0,0,1,32,0Z" transform="translate(190.1 544.298)"/><g transform="translate(204.515 562.001)"><path class="b" d="M11.023,222.75a3.831,3.831,0,0,0-2.1.624,3.712,3.712,0,0,0-1.39,1.66,3.634,3.634,0,0,0-.215,2.138,3.678,3.678,0,0,0,1.033,1.894,3.8,3.8,0,0,0,1.932,1.012,3.845,3.845,0,0,0,2.18-.211,3.754,3.754,0,0,0,1.694-1.363,3.64,3.64,0,0,0-.471-4.669A3.821,3.821,0,0,0,11.023,222.75Zm0,4.933a1.271,1.271,0,0,1-.7-.208,1.237,1.237,0,0,1-.463-.553,1.215,1.215,0,0,1,.273-1.344,1.272,1.272,0,0,1,1.371-.268,1.255,1.255,0,0,1,.565.453,1.215,1.215,0,0,1-.157,1.558A1.272,1.272,0,0,1,11.023,227.683Z" transform="translate(-4.729 -200.555)"/><path class="b" d="M31.212,222.75a3.832,3.832,0,0,0-2.1.624,3.713,3.713,0,0,0-1.39,1.66,3.634,3.634,0,0,0-.215,2.138,3.678,3.678,0,0,0,1.033,1.894,3.8,3.8,0,0,0,1.932,1.012,3.845,3.845,0,0,0,2.18-.211,3.753,3.753,0,0,0,1.693-1.363,3.639,3.639,0,0,0-.471-4.669A3.821,3.821,0,0,0,31.212,222.75Zm0,4.933a1.271,1.271,0,0,1-.7-.208,1.237,1.237,0,0,1-.463-.553,1.215,1.215,0,0,1,.273-1.344,1.272,1.272,0,0,1,1.371-.268,1.254,1.254,0,0,1,.565.453,1.216,1.216,0,0,1-.156,1.558A1.273,1.273,0,0,1,31.212,227.683Z" transform="translate(-1.018 -200.555)"/><path class="c" d="M42.661,219.407l.019-.011-3.773-6.165-.019.012a1.222,1.222,0,0,0-.448-.443,1.249,1.249,0,0,0-.613-.167H30.282V207.7a3.667,3.667,0,0,0-1.107-2.615A3.818,3.818,0,0,0,26.507,204H8.9a3.817,3.817,0,0,0-2.672,1.086,3.668,3.668,0,0,0-1.107,2.619h0a1.22,1.22,0,0,0,.38.851,1.275,1.275,0,0,0,1.756,0,1.22,1.22,0,0,0,.38-.851,1.211,1.211,0,0,1,.1-.472,1.23,1.23,0,0,1,.273-.4,1.269,1.269,0,0,1,.409-.268,1.292,1.292,0,0,1,.482-.094H26.507a1.273,1.273,0,0,1,.887.361,1.221,1.221,0,0,1,.368.87v19.728a1.22,1.22,0,0,1-.368.87,1.268,1.268,0,0,1-.887.361H18.961a1.288,1.288,0,0,0-.491.084,1.267,1.267,0,0,0-.419.265,1.223,1.223,0,0,0-.281.4,1.208,1.208,0,0,0,0,.958,1.223,1.223,0,0,0,.281.4,1.267,1.267,0,0,0,.419.265,1.288,1.288,0,0,0,.491.084h7.547a3.821,3.821,0,0,0,2.672-1.084,3.669,3.669,0,0,0,1.107-2.62V215.1h6.835l3.227,5.274V229.9a1.22,1.22,0,0,0,.38.851,1.275,1.275,0,0,0,1.756,0,1.219,1.219,0,0,0,.38-.851v-9.863A1.183,1.183,0,0,0,42.661,219.407Z" transform="translate(-5.12 -204.001)"/></g><path class="d" d="M14.326,212.718a1.289,1.289,0,0,0,.491-.085,1.239,1.239,0,0,0,.7-.669,1.211,1.211,0,0,0,0-.959,1.231,1.231,0,0,0-.281-.4,1.269,1.269,0,0,0-.911-.349H4.264a1.269,1.269,0,0,0-.911.349,1.233,1.233,0,0,0-.281.4,1.211,1.211,0,0,0,0,.959,1.238,1.238,0,0,0,.7.669,1.289,1.289,0,0,0,.491.085Z" transform="translate(199 359.149)"/><path class="d" d="M15.387,216.884a1.272,1.272,0,0,0,.868-.372,1.216,1.216,0,0,0,0-1.721,1.268,1.268,0,0,0-.868-.373H5.325a1.289,1.289,0,0,0-.491.085,1.248,1.248,0,0,0-.7.669,1.211,1.211,0,0,0,0,.959,1.233,1.233,0,0,0,.281.4,1.269,1.269,0,0,0,.911.349Z" transform="translate(199.195 359.915)"/><path class="d" d="M16.441,218.585H6.379a1.272,1.272,0,0,0-.868.372,1.216,1.216,0,0,0,0,1.721,1.268,1.268,0,0,0,.868.373H16.441a1.268,1.268,0,0,0,.868-.373,1.216,1.216,0,0,0,0-1.721A1.272,1.272,0,0,0,16.441,218.585Z" transform="translate(199.401 360.68)"/></g></svg>