<svg xmlns="http://www.w3.org/2000/svg" width="64" height="64" viewBox="0 0 64 64"><defs><style>.a{fill:#fff;}.b{fill:#707070;stroke:#707070;}.b,.c{stroke-width:0.5px;}.c{fill:#9aca3c;stroke:#9aca3c;}</style></defs><g transform="translate(4 -5.42)"><rect class="a" width="64" height="64" transform="translate(-4 5.42)"/><path class="b" d="M32.689,17.89a.9.9,0,0,0-.9.9v26.17H28.467V28.373a.9.9,0,1,0-1.793,0V44.957H23.341V18.787a.9.9,0,1,0-1.793,0V45.853a.9.9,0,0,0,.9.9H32.682a.9.9,0,0,0,.9-.9V18.787a.9.9,0,0,0-.889-.9Z" transform="translate(18.197 13.802)"/><path class="c" d="M33.634,18.111a6.723,6.723,0,0,0,.606-9.3l-.1-.107a6.723,6.723,0,0,0-10.084,0,.578.578,0,0,0-.084.094,6.723,6.723,0,0,0,.578,9.313A5.737,5.737,0,0,0,19,23.839V36.971a.9.9,0,0,0,1.793,0V23.839A3.949,3.949,0,0,1,24.737,19.9h.851l2.757,4.033a.9.9,0,0,0,1.479,0L32.58,19.9h.851a3.949,3.949,0,0,1,3.944,3.944V36.979a.9.9,0,0,0,1.793,0V23.839a5.737,5.737,0,0,0-5.534-5.727ZM31.967,9.147a8.744,8.744,0,0,1-5.764,0,4.93,4.93,0,0,1,5.764,0Zm-7.826,4.033a4.9,4.9,0,0,1,.762-2.653,10.25,10.25,0,0,0,8.363,0,4.931,4.931,0,1,1-9.125,2.621Zm4.931,8.672-1.345-1.931H30.37Z" transform="translate(16.684 6.996)"/><path class="b" d="M14.689,17.89a.9.9,0,0,0-.9.9v26.17H10.467V28.373a.9.9,0,0,0-1.793,0V44.957H5.341V18.787a.9.9,0,0,0-1.793,0V45.853a.9.9,0,0,0,.9.9H14.682a.9.9,0,0,0,.9-.9V18.787a.9.9,0,0,0-.889-.9Z" transform="translate(1.512 13.802)"/><path class="c" d="M15.634,18.111a6.723,6.723,0,0,0,.606-9.3l-.1-.107a6.723,6.723,0,0,0-10.084,0,.576.576,0,0,0-.084.094,6.723,6.723,0,0,0,.578,9.313A5.737,5.737,0,0,0,1,23.839V36.971a.9.9,0,0,0,1.793,0V23.839A3.949,3.949,0,0,1,6.737,19.9h.851l2.757,4.033a.9.9,0,0,0,1.479,0L14.58,19.9h.851a3.949,3.949,0,0,1,3.944,3.944V36.979a.9.9,0,0,0,1.793,0V23.839a5.737,5.737,0,0,0-5.534-5.727ZM13.967,9.147a8.744,8.744,0,0,1-5.764,0,4.93,4.93,0,0,1,5.764,0ZM6.141,13.181A4.9,4.9,0,0,1,6.9,10.527a10.25,10.25,0,0,0,8.363,0,4.931,4.931,0,1,1-9.125,2.621Zm4.931,8.672L9.726,19.922H12.37Z" transform="translate(0 6.996)"/></g></svg>