<svg id="Camada_1" data-name="Camada 1" xmlns="http://www.w3.org/2000/svg" viewBox="0 0 100 100"><defs><style>.cls-1{fill:#9aca3c;}</style></defs><title>Sem título-1</title><path class="cls-1" d="M47.92,95.05a6.49,6.49,0,0,0,2.09.34,6.93,6.93,0,0,0,2.13-.34c37-12.88,36.54-42.69,36.21-64.46v-.33c0-1.18,0-2.31-.09-3.4s-.07-2-.07-3V21.76l0-.23a4.58,4.58,0,0,0-4.53-4H81.56c-11.5,0-19.92-3.16-27.29-10.22L52.83,5.87a4.34,4.34,0,0,0-6.1,0L45.31,7.28C37.82,14.47,29.65,17.53,18,17.53H15.92a4.19,4.19,0,0,0-4.23,4.13v8.56C11.23,50.85,10.53,82,47.92,95.05ZM15.33,30.26v-8.5a.56.56,0,0,1,.52-.6H18c12.5,0,21.7-3.47,29.85-11.28L49.3,8.43a.7.7,0,0,1,1,0l1.47,1.47c8.13,7.78,17.32,11.25,29.83,11.25h2.08a1,1,0,0,1,.92.74v1.94c0,1.06,0,2.13.07,3.16s.09,2.15.09,3.29v.35c.33,21.81.74,49-33.75,61a3.17,3.17,0,0,1-1.88,0C14.22,79.47,14.86,51.05,15.33,30.26Z"/><path class="cls-1" d="M43.63,51.91a1.72,1.72,0,1,1,2.44-2.43l2.6,2.61,7.83-7.83a1.9,1.9,0,0,1,2.61,0,2.1,2.1,0,0,1,0,2.44l-9,9a1.9,1.9,0,0,1-2.61,0Z"/><path class="cls-1" d="M50,69.25A19.25,19.25,0,1,1,69.25,50,19.28,19.28,0,0,1,50,69.25Zm0-35.48A16.23,16.23,0,1,0,66.23,50,16.25,16.25,0,0,0,50,33.77Z"/></svg>