<svg id="Camada_1" data-name="Camada 1" xmlns="http://www.w3.org/2000/svg" viewBox="0 0 100 100"><defs><style>.cls-1{fill:#9aca3c;}</style></defs><title>Sem título-1</title><path class="cls-1" d="M85.25,82H74.33a1.56,1.56,0,0,1-1.56-1.56V78.74a1.56,1.56,0,0,1,1.56-1.56H85.25a1.54,1.54,0,0,1,1.56,1.56v1.65A1.56,1.56,0,0,1,85.25,82ZM74.33,78.64l-.1,1.75,11,.1.1-1.75a.09.09,0,0,0-.1-.1Z"/><path class="cls-1" d="M70,82H59.1a1.56,1.56,0,0,1-1.56-1.56V78.74a1.56,1.56,0,0,1,1.56-1.56H70a1.54,1.54,0,0,1,1.56,1.56v1.65A1.56,1.56,0,0,1,70,82ZM59.1,78.64,59,80.39l11,.1.1-1.75a.09.09,0,0,0-.1-.1Z"/><path class="cls-1" d="M54.81,82H43.89a1.56,1.56,0,0,1-1.56-1.56V78.74a1.56,1.56,0,0,1,1.56-1.56H54.81a1.55,1.55,0,0,1,1.56,1.56v1.65A1.56,1.56,0,0,1,54.81,82ZM43.89,78.64l-.1,1.75,11,.1.1-1.75a.09.09,0,0,0-.1-.1Z"/><path class="cls-1" d="M39.58,82H28.66a1.56,1.56,0,0,1-1.56-1.56V78.72a1.56,1.56,0,0,1,1.56-1.56H39.58a1.56,1.56,0,0,1,1.56,1.56v1.67A1.56,1.56,0,0,1,39.58,82ZM28.66,78.62l-.1,1.77,11,.1.1-1.77a.11.11,0,0,0-.1-.1Z"/><path class="cls-1" d="M44.6,61.33H28.66a1.74,1.74,0,0,1-1.75-1.72V52.47a1.72,1.72,0,0,1,1.75-1.74H44.6a1.74,1.74,0,0,1,1.74,1.74v7.14A1.73,1.73,0,0,1,44.6,61.33ZM28.66,52.55l.08,7.06,15.86-.1-.09-7Zm15.85-.08Z"/><path class="cls-1" d="M88.86,91.21H26.46a6.82,6.82,0,0,1-6.81-6.81V49.27a6.82,6.82,0,0,1,6.81-6.81h62.4a6.82,6.82,0,0,1,6.81,6.81V84.4A6.82,6.82,0,0,1,88.86,91.21ZM26.46,45.38a3.89,3.89,0,0,0-3.88,3.89V84.4a3.89,3.89,0,0,0,3.88,3.89h62.4a3.89,3.89,0,0,0,3.89-3.89V49.27a3.89,3.89,0,0,0-3.89-3.89Z"/><path class="cls-1" d="M17.68,66.64c-4.35,0-6-2.55-6.56-5.31L4.48,29.93a6.82,6.82,0,0,1,5.25-8.08l61-12.92a6.82,6.82,0,0,1,8.08,5.26l5.62,26.56h-3L76,14.79a3.91,3.91,0,0,0-4.61-3l-61,12.92a3.89,3.89,0,0,0-3,4.61L14,60.73c.52,2.46,1.57,3,3.7,3Z"/><path class="cls-1" d="M7.4,43.17l-2.17-10,74.12-16,2.17,10Zm1.08-7.93,1,4.67L78.26,25l-1-4.67Z"/></svg>