<svg id="Camada_1" data-name="Camada 1" xmlns="http://www.w3.org/2000/svg" viewBox="0 0 100 100"><defs><style>.cls-1{fill:#9aca3c;}</style></defs><title>Sem título-1</title><path class="cls-1" d="M78,29.49a1.16,1.16,0,0,0-1.16-1.15H71.49V23a1.16,1.16,0,0,0-2.31,0v5.31H63.87a1.16,1.16,0,0,0,0,2.31h5.31V36a1.16,1.16,0,0,0,2.31,0V30.65H76.8A1.16,1.16,0,0,0,78,29.49Z"/><path class="cls-1" d="M70.34,37.42A1.46,1.46,0,0,1,68.88,36V31h-5a1.46,1.46,0,1,1,0-2.92h5V23a1.46,1.46,0,1,1,2.92,0v5h5a1.46,1.46,0,0,1,0,2.92h-5v5A1.47,1.47,0,0,1,70.34,37.42Zm-6.46-8.78a.85.85,0,1,0,0,1.7h5.61V36a.85.85,0,0,0,1.7,0V30.34H76.8a.85.85,0,0,0,0-1.7H71.19V23a.85.85,0,0,0-1.7,0v5.61Z"/><path class="cls-1" d="M50,4.92A45.81,45.81,0,1,0,95.81,50.73,45.86,45.86,0,0,0,50,4.92Zm0,88.59A42.79,42.79,0,1,1,92.79,50.73,42.84,42.84,0,0,1,50,93.51Z"/><path class="cls-1" d="M50,96.81A46.09,46.09,0,1,1,96.09,50.73,46.14,46.14,0,0,1,50,96.81ZM50,5.25A45.48,45.48,0,1,0,95.48,50.73,45.53,45.53,0,0,0,50,5.25Z"/><path class="cls-1" d="M50,96.7c-11,0-21.38-3.81-27.76-10.19-1.69-1.69-1.48-4.62.58-7.84A32.26,32.26,0,0,1,50,63.89,32.71,32.71,0,0,1,77.38,78.65l.43.63C79,81,81.1,84,79.22,86.21,72.46,92.73,61.3,96.7,50,96.7Zm0-29.56A29,29,0,0,0,25.53,80.43c-1,1.61-1.5,3.31-1,3.79C30.29,90,39.81,93.46,50,93.46c10.36,0,20.91-3.71,26.88-9.46a12.57,12.57,0,0,0-1.69-2.85l-.49-.7A29.45,29.45,0,0,0,50,67.14Z"/><path class="cls-1" d="M50,62.13A15.16,15.16,0,1,1,65.12,47,15.17,15.17,0,0,1,50,62.13Zm0-27.06A11.91,11.91,0,1,0,61.87,47,11.92,11.92,0,0,0,50,35.07Z"/></svg>